<?xml version="1.0" encoding="utf-8"?>
<!-- Generator: Adobe Illustrator 19.2.1, SVG Export Plug-In . SVG Version: 6.00 Build 0)  -->
<svg version="1.1" id="Warstwa_1" xmlns="http://www.w3.org/2000/svg" xmlns:xlink="http://www.w3.org/1999/xlink" x="0px" y="0px"
	 viewBox="0 0 2000 419.8" style="enable-background:new 0 0 2000 419.8;" xml:space="preserve">
<style type="text/css">
	.st0{clip-path:url(#SVGID_2_);}
	.st1{clip-path:url(#SVGID_6_);}
	.st2{clip-path:url(#SVGID_10_);}
	.st3{clip-path:url(#SVGID_14_);}
	.st4{clip-path:url(#SVGID_18_);}
	.st5{clip-path:url(#SVGID_22_);}
	.st6{clip-path:url(#SVGID_26_);}
	.st7{clip-path:url(#SVGID_30_);}
</style>
<g>
	<defs>
		<path id="SVGID_1_" d="M1969.2,131.3h-60.9v145.1c0,7-5.9,12.6-12.9,12.6h-25.7c-7,0-12.9-5.6-12.9-12.6V131.3h-60.9
			c-7.3,0-12.9-5.6-12.9-12.9v-12.9c0-7.3,5.6-12.9,12.9-12.9h173.3c7.3,0,12.9,5.6,12.9,12.9v12.9
			C1982,125.7,1976.5,131.3,1969.2,131.3z M1688.3,131.3h-38.9c-17.6,0-31.6,10.7-36,27.5l-12,44.1h86.9V131.3z M1726.9,289h-25.7
			c-7.3,0-12.9-5.6-12.9-12.9v-34.5h-97l-9.2,34.5c-2,7.3-8.9,12.9-16.2,12.9h-26.8c-7.3,0-11.5-5.6-9.5-12.6l34.4-130.5
			c11.5-43.5,50.9-53.3,90.5-53.3h73.5c6.7,0,11.7,5.9,11.7,12.6v171.2C1739.8,283.4,1733.9,289,1726.9,289z M1512,131.3h-60.9
			v145.1c0,7-5.9,12.6-12.9,12.6h-25.7c-7,0-12.9-5.6-12.9-12.6V131.3l-229-1.9c-7.3,0,54.3-9.6,54.3-16.9l-35.6-15
			c0-7.3,137-5.6,144.3-5.6l178.3,0.7c7.3,0,12.9,5.6,12.9,12.9v12.9C1524.9,125.7,1519.3,131.3,1512,131.3z M1399.3,131.2
			l-179.9-1.1h-41.1c-16.8,0-24,5.9-24,15.7c0,32.6,147.8,13.8,147.8,87c0,33.7-17.4,60-84.5,60h-42.7H969.2l27.2-42.9l182.5,1.4
			h47.8c16.8,0,24-5.9,24-15.7c0-32.6-147.8-14.3-147.8-87c0-33.7,19.6-57.3,86.6-57.3h34.7l187.5,2.7L1399.3,131.2z M953.6,125.4
			c-41.9,0-58.4,23.3-58.4,65.4c0,42.1,16.5,65.4,58.4,65.4c41.9,0,58.4-23.3,58.4-65.4C1012.1,148.7,995.6,125.4,953.6,125.4z
			 M953.6,293.2c-69.9,0-109.8-29.5-109.8-102.4c0-73,40-102.4,109.8-102.4c69.9,0,109.8,29.5,109.8,102.4
			C1063.5,263.7,1023.5,293.2,953.6,293.2z M781.8,289h-25.4c-7,0-12.9-5.6-12.9-12.6V105.5c0-7.3,5.9-12.9,12.9-12.9h25.4
			c7.3,0,13.1,5.6,13.1,12.9v170.6C794.9,283.1,789,289,781.8,289z M621.4,204.8H456.8V252h164.5c14.5,0,21.8-9.5,21.8-23.6
			C643.2,214.3,635.9,204.8,621.4,204.8z M616.3,129.6H456.8v39.3h159.5c11.5,0,19-7,19-19.6S627.8,129.6,616.3,129.6z M668.3,184.6
			c18.4,9.8,26.3,26.9,26.3,45.5c0,39-34.1,58.9-72.4,58.9H418.3c-7.3,0-12.9-5.9-12.9-12.9V105.5c0-7,5.6-12.9,12.9-12.9h197.5
			c34.9,0,71,15.2,71,55.9C686.8,162.4,682,173.4,668.3,184.6z"/>
	</defs>
	<use xlink:href="#SVGID_1_"  style="overflow:visible;fill:#FFFFFF;"/>
	<clipPath id="SVGID_2_">
		<use xlink:href="#SVGID_1_"  style="overflow:visible;"/>
	</clipPath>
	<g class="st0">
		<defs>
			<rect id="SVGID_3_" x="-866.1" y="-577.1" width="3747.5" height="1600.2"/>
		</defs>
		<use xlink:href="#SVGID_3_"  style="overflow:visible;fill:#FFFFFF;"/>
		<clipPath id="SVGID_4_">
			<use xlink:href="#SVGID_3_"  style="overflow:visible;"/>
		</clipPath>
	</g>
</g>
<g>
	<defs>
		<path id="SVGID_5_" d="M1728.1,360.4h-3.9c-1.9,0-3.4-0.9-4.5-3.1c-1.1-2.3-3.7-3.4-7.1-3.4h-10c-4.1,0-5.9,1.4-5.9,3.8
			c0,7.9,36,3.3,36,21.2c0,8.2-4.8,13.9-21.1,13.9h-10.1c-8.6,0-17.8-5-17.8-12.3c0-3.1,2.5-3.7,3.4-3.7h3.9c1.9,0,3.4,0.9,4.5,3.1
			c1.1,2.3,3.7,3.4,7.1,3.4h11.6c4.1,0,5.8-1.4,5.8-3.8c0-7.9-36-3.5-36-21.2c0-8.2,4.8-13.9,21.1-13.9h8.4c8.6,0,17.8,5,17.8,12.3
			C1731.5,359.8,1729,360.4,1728.1,360.4z M1669.2,362.8h-3.9c-1.9,0-3.5-0.9-4.8-3.7c-1.5-3.2-4.1-5.3-8.2-5.3h-5.9
			c-9.8,0-12.4,3.6-12.4,14.8c0,11.1,2.7,14.7,12.4,14.7h6.6c4.1,0,6.7-2,8.2-5.3c1.3-2.8,2.9-3.7,4.8-3.7h3.9
			c0.9,0,3.4,0.6,3.4,3.7c0,9.7-9.9,14.7-19.1,14.7h-8.1c-16.3,0-24.6-7.6-24.6-24.2c0-16.6,8.4-24.2,24.6-24.2h7.4
			c9.3,0,19.1,5,19.1,14.7C1672.6,362.2,1670.1,362.8,1669.2,362.8z M1604.7,392.5h-6.2c-1.7,0-3.1-1.4-3.1-3.1v-41.6
			c0-1.8,1.4-3.1,3.1-3.1h6.2c1.8,0,3.2,1.4,3.2,3.1v41.5C1607.9,391.1,1606.4,392.5,1604.7,392.5z M1580,354.1h-14.8v35.3
			c0,1.7-1.4,3.1-3.1,3.1h-6.3c-1.7,0-3.1-1.4-3.1-3.1v-35.3h-14.8c-1.8,0-3.1-1.4-3.1-3.1v-3.1c0-1.8,1.4-3.1,3.1-3.1h42.2
			c1.8,0,3.1,1.4,3.1,3.1v3.1C1583.1,352.8,1581.7,354.1,1580,354.1z M1522.6,360.4h-3.9c-1.9,0-3.4-0.9-4.5-3.1
			c-1.1-2.3-3.7-3.4-7.1-3.4h-10c-4.1,0-5.8,1.4-5.8,3.8c0,7.9,36,3.3,36,21.2c0,8.2-4.8,13.9-21.1,13.9H1496
			c-8.6,0-17.7-5-17.7-12.3c0-3.1,2.5-3.7,3.4-3.7h3.9c1.9,0,3.4,0.9,4.5,3.1c1.1,2.3,3.7,3.4,7.1,3.4h11.6c4.1,0,5.9-1.4,5.9-3.8
			c0-7.9-36-3.5-36-21.2c0-8.2,4.8-13.9,21.1-13.9h8.4c8.6,0,17.8,5,17.8,12.3C1526,359.8,1523.5,360.4,1522.6,360.4z M1461.5,392.5
			h-6.2c-1.7,0-3.1-1.4-3.1-3.1v-41.6c0-1.8,1.4-3.1,3.1-3.1h6.2c1.8,0,3.2,1.4,3.2,3.1v41.5
			C1464.7,391.1,1463.3,392.5,1461.5,392.5z M1436.8,354.1H1422v35.3c0,1.7-1.4,3.1-3.1,3.1h-6.3c-1.7,0-3.1-1.4-3.1-3.1v-35.3
			h-14.8c-1.8,0-3.1-1.4-3.1-3.1v-3.1c0-1.8,1.4-3.1,3.1-3.1h42.2c1.8,0,3.1,1.4,3.1,3.1v3.1
			C1439.9,352.8,1438.6,354.1,1436.8,354.1z M1366.8,354.1h-9.5c-4.3,0-7.7,2.6-8.8,6.7l-2.9,10.7h21.2V354.1z M1376.1,392.5h-6.3
			c-1.8,0-3.1-1.4-3.1-3.1v-8.4h-23.6l-2.2,8.4c-0.5,1.8-2.2,3.1-3.9,3.1h-6.5c-1.8,0-2.8-1.4-2.3-3.1l8.4-31.8
			c2.8-10.6,12.4-13,22-13h17.9c1.6,0,2.9,1.4,2.9,3.1v41.7C1379.3,391.1,1377.8,392.5,1376.1,392.5z M1322.1,354.1h-14.8v35.3
			c0,1.7-1.4,3.1-3.1,3.1h-6.3c-1.7,0-3.1-1.4-3.1-3.1v-35.3H1280c-1.8,0-3.1-1.4-3.1-3.1v-3.1c0-1.8,1.4-3.1,3.1-3.1h42.2
			c1.8,0,3.1,1.4,3.1,3.1v3.1C1325.3,352.8,1323.9,354.1,1322.1,354.1z M1264.7,360.4h-3.9c-1.9,0-3.4-0.9-4.5-3.1
			c-1.1-2.3-3.7-3.4-7.1-3.4h-10c-4.1,0-5.8,1.4-5.8,3.8c0,7.9,36,3.3,36,21.2c0,8.2-4.8,13.9-21.1,13.9h-10.1
			c-8.6,0-17.7-5-17.7-12.3c0-3.1,2.5-3.7,3.4-3.7h3.9c1.9,0,3.4,0.9,4.5,3.1c1.1,2.3,3.7,3.4,7.1,3.4h11.6c4.1,0,5.9-1.4,5.9-3.8
			c0-7.9-36-3.5-36-21.2c0-8.2,4.8-13.9,21.1-13.9h8.4c8.6,0,17.7,5,17.7,12.3C1268.1,359.8,1265.6,360.4,1264.7,360.4z
			 M1173.1,392.5h-11c-1.8,0-3.7-1.4-4.8-3.1l-18.4-28.6v28.6c0,1.7-1.4,3.1-3.1,3.1h-5.8c-1.7,0-3.1-1.4-3.1-3.1v-41.5
			c0-1.7,1.4-3.1,3.1-3.1h9.8c1.6,0,3.5,1.6,4.6,3.1l20.1,31v-31.1c0-1.7,1.4-3.1,3.1-3.1h5.7c1.8,0,3.1,1.4,3.1,3.1v41.5
			C1176.3,391.1,1174.9,392.5,1173.1,392.5z M1098,354.1h-9.5c-4.3,0-7.7,2.6-8.8,6.7l-2.9,10.7h21.2V354.1z M1107.4,392.5h-6.3
			c-1.8,0-3.1-1.4-3.1-3.1v-8.4h-23.6l-2.2,8.4c-0.5,1.8-2.2,3.1-3.9,3.1h-6.5c-1.8,0-2.8-1.4-2.3-3.1l8.4-31.8
			c2.8-10.6,12.4-13,22-13h17.9c1.6,0,2.9,1.4,2.9,3.1v41.7C1110.5,391.1,1109.1,392.5,1107.4,392.5z M1043.8,392.5h-6.2
			c-1.7,0-3.1-1.4-3.1-3.1v-17.1h-22.9v17.1c0,1.7-1.4,3.1-3.1,3.1h-6.2c-1.8,0-3.2-1.4-3.2-3.1v-41.5c0-1.8,1.4-3.1,3.2-3.1h6.2
			c1.7,0,3.1,1.4,3.1,3.1v15h22.9v-15c0-1.8,1.4-3.1,3.1-3.1h6.2c1.8,0,3.2,1.4,3.2,3.1v41.5C1047,391.1,1045.5,392.5,1043.8,392.5z
			 M983.7,354.1h-14.8v35.3c0,1.7-1.4,3.1-3.1,3.1h-6.3c-1.7,0-3.1-1.4-3.1-3.1v-35.3h-14.8c-1.8,0-3.1-1.4-3.1-3.1v-3.1
			c0-1.8,1.4-3.1,3.1-3.1h42.2c1.8,0,3.1,1.4,3.1,3.1v3.1C986.9,352.8,985.5,354.1,983.7,354.1z M895.9,354.1h-28.9v9.7h24.9
			c1.7,0,3.1,1.4,3.1,3.1v3.1c0,1.7-1.4,3.1-3.1,3.1h-24.9v9.8h28.8c1.7,0,3.1,1.4,3.1,3.1v3.2c0,1.7-1.4,3.1-3.1,3.1h-38.2
			c-1.8,0-3.1-1.4-3.1-3.2v-41.5c0-1.7,1.4-3.1,3.1-3.1h38.3c1.7,0,3.1,1.4,3.1,3.1v3.1C899,352.8,897.6,354.1,895.9,354.1z
			 M819.3,354.1h-14.1v11.5h14.1c3.8,0,8.6-1.4,8.6-5.7C828,355.5,823.1,354.1,819.3,354.1z M835.5,379.7l6.1,9.6
			c1.1,1.8,0.6,3.1-1.2,3.1h-8c-1.7,0-4-1.4-5.1-3.1l-5.6-8.9c-1.7-2.7-4.2-5.5-8.4-5.5h-8.1v14.3c0,1.7-1.4,3.1-3.1,3.1h-6.3
			c-1.7,0-3.1-1.4-3.1-3.1v-41.5c0-1.8,1.4-3.1,3.1-3.1h27.4c9.9,0,17.3,5.7,17.3,15.2c0,7.4-5.6,10.8-12.5,12.2
			C830.8,373,832.8,375.4,835.5,379.7z M752.3,352.7c-10.2,0-14.2,5.7-14.2,15.9c0,10.2,4,15.9,14.2,15.9c10.2,0,14.2-5.7,14.2-15.9
			C766.6,358.3,762.5,352.7,752.3,352.7z M752.3,393.5c-17,0-26.7-7.2-26.7-24.9c0-17.8,9.7-24.9,26.7-24.9c17,0,26.7,7.2,26.7,24.9
			C779.1,386.3,769.4,393.5,752.3,393.5z M708.9,392.5h-6c-1.8,0-3.1-1.4-3.1-3.2v-32.6l-11.7,32.8c-0.6,1.6-2.4,3-4.1,3h-4.8
			c-1.7,0-3.5-1.4-4.1-3l-11.7-32.8v32.6c0,1.8-1.4,3.2-3.1,3.2h-6c-1.8,0-3.1-1.4-3.1-3.2v-41.4c0-1.8,1.4-3.2,3.1-3.2h13.5
			c1.8,0,3.5,1.4,4,3.1l9.8,28.5l9.8-28.5c0.5-1.7,2.2-3.1,4-3.1H709c1.7,0,3.1,1.4,3.1,3.2v41.4C712,391.1,710.7,392.5,708.9,392.5
			z"/>
	</defs>
	<use xlink:href="#SVGID_5_"  style="overflow:visible;fill:#FFFFFF;"/>
	<clipPath id="SVGID_6_">
		<use xlink:href="#SVGID_5_"  style="overflow:visible;"/>
	</clipPath>
	<g class="st1">
		<defs>
			<rect id="SVGID_7_" x="-866.1" y="-577.1" width="3747.5" height="1600.2"/>
		</defs>
		<use xlink:href="#SVGID_7_"  style="overflow:visible;fill:#FFFFFF;"/>
		<clipPath id="SVGID_8_">
			<use xlink:href="#SVGID_7_"  style="overflow:visible;"/>
		</clipPath>
		<g style="display:none;clip-path:url(#SVGID_8_);">
			
				<image style="display:inline;overflow:visible;" width="2000" height="854" xlink:href="56316734.jpg"  transform="matrix(1.8738 0 0 1.8738 -866.1231 -577.071)">
			</image>
		</g>
	</g>
</g>
<g>
	<defs>
		<path id="SVGID_9_" d="M43.7,180.6c12,0,21.6,9.9,21.6,22.1v80.8c0,12.2-9.7,22.1-21.6,22.1c-12,0-21.6-9.9-21.6-22.1v-80.8
			C22,190.5,31.7,180.6,43.7,180.6z"/>
	</defs>
	<use xlink:href="#SVGID_9_"  style="overflow:visible;fill-rule:evenodd;clip-rule:evenodd;fill:#FFFFFF;"/>
	<clipPath id="SVGID_10_">
		<use xlink:href="#SVGID_9_"  style="overflow:visible;"/>
	</clipPath>
	<g class="st2">
		<defs>
			<rect id="SVGID_11_" x="-866.1" y="-577.1" width="3747.5" height="1600.2"/>
		</defs>
		<use xlink:href="#SVGID_11_"  style="overflow:visible;fill:#FFFFFF;"/>
		<clipPath id="SVGID_12_">
			<use xlink:href="#SVGID_11_"  style="overflow:visible;"/>
		</clipPath>
		<g style="display:none;clip-path:url(#SVGID_12_);">
			
				<image style="display:inline;overflow:visible;" width="2000" height="854" xlink:href="56316735.jpg"  transform="matrix(1.8738 0 0 1.8738 -866.1231 -577.071)">
			</image>
		</g>
	</g>
</g>
<g>
	<defs>
		<path id="SVGID_13_" d="M188,143.9c11.9,0,21.6,9.9,21.6,22v117.6c0,12.2-9.7,22.1-21.6,22.1c-12,0-21.6-9.9-21.6-22.1V165.9
			C166.3,153.8,176,143.9,188,143.9z"/>
	</defs>
	<use xlink:href="#SVGID_13_"  style="overflow:visible;fill-rule:evenodd;clip-rule:evenodd;fill:#FFFFFF;"/>
	<clipPath id="SVGID_14_">
		<use xlink:href="#SVGID_13_"  style="overflow:visible;"/>
	</clipPath>
	<g class="st3">
		<defs>
			<rect id="SVGID_15_" x="-866.1" y="-577.1" width="3747.5" height="1600.2"/>
		</defs>
		<use xlink:href="#SVGID_15_"  style="overflow:visible;fill:#FFFFFF;"/>
		<clipPath id="SVGID_16_">
			<use xlink:href="#SVGID_15_"  style="overflow:visible;"/>
		</clipPath>
		<g style="display:none;clip-path:url(#SVGID_16_);">
			
				<image style="display:inline;overflow:visible;" width="2000" height="854" xlink:href="56316733.jpg"  transform="matrix(1.8738 0 0 1.8738 -872.4564 -579.071)">
			</image>
		</g>
	</g>
</g>
<g>
	<defs>
		<path id="SVGID_17_" d="M260.1,114.5c12,0,21.6,9.9,21.6,22v147c0,12.2-9.7,22.1-21.6,22.1c-11.9,0-21.6-9.9-21.6-22.1v-147
			C238.4,124.4,248.1,114.5,260.1,114.5z"/>
	</defs>
	<use xlink:href="#SVGID_17_"  style="overflow:visible;fill-rule:evenodd;clip-rule:evenodd;fill:#FFFFFF;"/>
	<clipPath id="SVGID_18_">
		<use xlink:href="#SVGID_17_"  style="overflow:visible;"/>
	</clipPath>
	<g class="st4">
		<defs>
			<rect id="SVGID_19_" x="-866.1" y="-577.1" width="3747.5" height="1600.2"/>
		</defs>
		<use xlink:href="#SVGID_19_"  style="overflow:visible;fill:#FFFFFF;"/>
		<clipPath id="SVGID_20_">
			<use xlink:href="#SVGID_19_"  style="overflow:visible;"/>
		</clipPath>
		<g style="display:none;clip-path:url(#SVGID_20_);">
			
				<image style="display:inline;overflow:visible;" width="2000" height="854" xlink:href="5631673C.jpg"  transform="matrix(1.8738 0 0 1.8738 -866.1231 -577.071)">
			</image>
		</g>
	</g>
</g>
<g>
	<defs>
		<path id="SVGID_21_" d="M260.1,26.3c12,0,21.6,9.9,21.6,22v29.4c0,12.2-9.7,22.1-21.6,22.1c-11.9,0-21.6-9.9-21.6-22.1V48.3
			C238.4,36.2,248.1,26.3,260.1,26.3z"/>
	</defs>
	<use xlink:href="#SVGID_21_"  style="overflow:visible;fill-rule:evenodd;clip-rule:evenodd;fill:#FFFFFF;"/>
	<clipPath id="SVGID_22_">
		<use xlink:href="#SVGID_21_"  style="overflow:visible;"/>
	</clipPath>
	<g class="st5">
		<defs>
			<rect id="SVGID_23_" x="-866.1" y="-577.1" width="3747.5" height="1600.2"/>
		</defs>
		<use xlink:href="#SVGID_23_"  style="overflow:visible;fill:#FFFFFF;"/>
		<clipPath id="SVGID_24_">
			<use xlink:href="#SVGID_23_"  style="overflow:visible;"/>
		</clipPath>
		<g style="display:none;clip-path:url(#SVGID_24_);">
			
				<image style="display:inline;overflow:visible;" width="2000" height="854" xlink:href="5631673F.jpg"  transform="matrix(1.8738 0 0 1.8738 -866.1231 -577.071)">
			</image>
		</g>
	</g>
</g>
<g>
	<defs>
		<path id="SVGID_25_" d="M115.8,114.5c12,0,21.6,9.9,21.6,22v80.9c0,12.2-9.7,22-21.6,22c-12,0-21.6-9.9-21.6-22v-80.9
			C94.2,124.4,103.9,114.5,115.8,114.5z"/>
	</defs>
	<use xlink:href="#SVGID_25_"  style="overflow:visible;fill-rule:evenodd;clip-rule:evenodd;fill:#FFFFFF;"/>
	<clipPath id="SVGID_26_">
		<use xlink:href="#SVGID_25_"  style="overflow:visible;"/>
	</clipPath>
	<g class="st6">
		<defs>
			<rect id="SVGID_27_" x="-866.1" y="-577.1" width="3747.5" height="1600.2"/>
		</defs>
		<use xlink:href="#SVGID_27_"  style="overflow:visible;fill:#FFFFFF;"/>
		<clipPath id="SVGID_28_">
			<use xlink:href="#SVGID_27_"  style="overflow:visible;"/>
		</clipPath>
		<g style="display:none;clip-path:url(#SVGID_28_);">
			
				<image style="display:inline;overflow:visible;" width="2000" height="854" xlink:href="5631673D.jpg"  transform="matrix(1.8738 0 0 1.8738 -866.1231 -577.071)">
			</image>
		</g>
	</g>
</g>
<g>
	<defs>
		<path id="SVGID_29_" d="M115.8,254.1c12,0,21.6,9.9,21.6,22.1v7.3c0,12.2-9.7,22.1-21.6,22.1c-12,0-21.6-9.9-21.6-22.1v-7.3
			C94.2,264,103.9,254.1,115.8,254.1z"/>
	</defs>
	<use xlink:href="#SVGID_29_"  style="overflow:visible;fill-rule:evenodd;clip-rule:evenodd;fill:#FFFFFF;"/>
	<clipPath id="SVGID_30_">
		<use xlink:href="#SVGID_29_"  style="overflow:visible;"/>
	</clipPath>
	<g class="st7">
		<defs>
			<rect id="SVGID_31_" x="-866.1" y="-577.1" width="3747.5" height="1600.2"/>
		</defs>
		<use xlink:href="#SVGID_31_"  style="overflow:visible;fill:#FFFFFF;"/>
		<clipPath id="SVGID_32_">
			<use xlink:href="#SVGID_31_"  style="overflow:visible;"/>
		</clipPath>
		<g style="display:none;clip-path:url(#SVGID_32_);">
			
				<image style="display:inline;overflow:visible;" width="2000" height="854" xlink:href="56316732.jpg"  transform="matrix(1.8738 0 0 1.8738 -866.1231 -577.071)">
			</image>
		</g>
	</g>
</g>
</svg>
