<?xml version="1.0" encoding="utf-8"?>
<!-- Generator: Adobe Illustrator 19.2.1, SVG Export Plug-In . SVG Version: 6.00 Build 0)  -->
<svg version="1.1" id="Warstwa_1" xmlns="http://www.w3.org/2000/svg" xmlns:xlink="http://www.w3.org/1999/xlink" x="0px" y="0px"
	 viewBox="0 0 90 90" style="enable-background:new 0 0 90 90;" xml:space="preserve">
<style type="text/css">
	.st0{fill:none;stroke:#1E576C;stroke-miterlimit:10;}
	.st1{fill:#C7EAFB;}
	.st2{fill:none;stroke:#C7EAFB;stroke-miterlimit:10;}
	.st3{fill:none;stroke:#8ED8F8;stroke-miterlimit:10;}
	.st4{fill:none;stroke:#3CB2E1;stroke-miterlimit:10;}
</style>
<g>
	<path class="st0" d="M64.9,87.6H25.1c-3.1,0-5.6-2.5-5.6-5.6V7.9c0-3.1,2.5-5.6,5.6-5.6h39.9c3.1,0,5.6,2.5,5.6,5.6v74.1
		C70.5,85.1,68,87.6,64.9,87.6z"/>
	<rect x="25" y="8.1" class="st0" width="40" height="66.9"/>
	<circle class="st0" cx="45" cy="81.2" r="3.9"/>
	<g>
		<circle class="st1" cx="44.9" cy="52.4" r="3.9"/>
		<g id="XMLID_5_">
			<g>
			</g>
			<g>
				<path class="st2" d="M38.5,46.1c1.6-1.6,3.9-2.6,6.4-2.6c2.5,0,4.7,1,6.4,2.7"/>
				<polyline class="st2" points="51.2,46.1 51.2,46.1 51.2,46.1 				"/>
			</g>
		</g>
		<g id="XMLID_6_">
			<g>
			</g>
			<g>
				<path class="st3" d="M35.2,42.4c2.5-2.5,5.9-4,9.8-4c3.8,0,7.3,1.5,9.8,4.1"/>
			</g>
		</g>
		<g id="XMLID_7_">
			<g>
			</g>
			<g>
				<path class="st4" d="M31.6,39.2c3.4-3.4,8.2-5.5,13.4-5.5c5.2,0,10,2.1,13.4,5.6"/>
				<polyline class="st4" points="58.4,39.3 58.4,39.3 58.4,39.3 				"/>
			</g>
		</g>
	</g>
</g>
</svg>
