<?xml version="1.0" encoding="utf-8"?>
<!-- Generator: Adobe Illustrator 19.2.1, SVG Export Plug-In . SVG Version: 6.00 Build 0)  -->
<svg version="1.1" id="Warstwa_1" xmlns="http://www.w3.org/2000/svg" xmlns:xlink="http://www.w3.org/1999/xlink" x="0px" y="0px"
	 viewBox="0 0 90 90" style="enable-background:new 0 0 90 90;" xml:space="preserve">
<style type="text/css">
	.st0{fill:none;stroke:#1E576C;stroke-miterlimit:10;}
	.st1{fill:none;stroke:#8ED8F8;stroke-miterlimit:10;}
	.st2{fill:none;stroke:#C7EAFB;stroke-miterlimit:10;}
	.st3{fill:none;stroke:#3CB2E1;stroke-miterlimit:10;}
</style>
<g>
	<g>
		<circle class="st0" cx="45.2" cy="20.4" r="2.6"/>
		<rect x="41.1" y="25.8" class="st0" width="8.3" height="3.5"/>
		<line class="st0" x1="42.5" y1="28" x2="42.5" y2="29.3"/>
		<line class="st0" x1="47.9" y1="28" x2="47.9" y2="29.3"/>
	</g>
	<g>
		<circle class="st0" cx="18" cy="63.5" r="2.6"/>
		<rect x="13.9" y="68.9" class="st0" width="8.3" height="3.5"/>
		<line class="st0" x1="15.4" y1="71.1" x2="15.4" y2="72.4"/>
		<line class="st0" x1="20.7" y1="71.1" x2="20.7" y2="72.4"/>
	</g>
	<g>
		<circle class="st0" cx="66.2" cy="63" r="2.6"/>
		<rect x="62" y="68.3" class="st0" width="8.3" height="3.5"/>
		<line class="st0" x1="63.5" y1="70.6" x2="63.5" y2="71.8"/>
		<line class="st0" x1="68.9" y1="70.6" x2="68.9" y2="71.8"/>
	</g>
	<g id="XMLID_2_">
		<g>
		</g>
		<g>
			<path class="st1" d="M44.7,5.4c10,0,18.2,8.1,18.2,18.2c0,10-8.1,18.2-18.2,18.2"/>
			<path class="st2" d="M44.7,8.5c8.3,0,15.1,6.8,15.1,15.1S53,38.7,44.7,38.7s-15.1-6.8-15.1-15.1"/>
			<path class="st3" d="M44.7,11.6c6.6,0,12,5.4,12,12"/>
		</g>
	</g>
	<g id="XMLID_3_">
		<g>
		</g>
		<g>
			<path class="st1" d="M17.8,48.2c10,0,18.2,8.1,18.2,18.2s-8.1,18.2-18.2,18.2"/>
			<path class="st2" d="M17.8,51.3c8.3,0,15.1,6.8,15.1,15.1"/>
			<path class="st3" d="M17.8,54.4c6.6,0,12,5.4,12,12s-5.4,12-12,12c-6.6,0-12-5.4-12-12"/>
		</g>
	</g>
	<g id="XMLID_4_">
		<g>
		</g>
		<g>
			<path class="st1" d="M66,49.4c10,0,18.2,8.1,18.2,18.2"/>
			<path class="st2" d="M66,52.5c8.3,0,15.1,6.8,15.1,15.1S74.4,82.7,66,82.7"/>
			<path class="st3" d="M66,55.6c6.6,0,12,5.4,12,12c0,6.6-5.4,12-12,12c-6.6,0-12-5.4-12-12"/>
		</g>
	</g>
</g>
</svg>
