<?xml version="1.0" encoding="utf-8"?>
<!-- Generator: Adobe Illustrator 19.2.1, SVG Export Plug-In . SVG Version: 6.00 Build 0)  -->
<svg version="1.1" id="Warstwa_1" xmlns="http://www.w3.org/2000/svg" xmlns:xlink="http://www.w3.org/1999/xlink" x="0px" y="0px"
	 viewBox="0 0 90 90" style="enable-background:new 0 0 90 90;" xml:space="preserve">
<style type="text/css">
	.st0{fill:none;stroke:#1E576C;stroke-miterlimit:10;}
	.st1{fill:#3CB2E1;}
</style>
<g>
	<g id="XMLID_1_">
		<path class="st0" d="M87.9,19.2v51.7c0,1.2-1,2.2-2.2,2.2H4.4c-1.2,0-2.2-1-2.2-2.2V19.2c0-1.2,1-2.2,2.2-2.2h81.3
			C86.9,16.9,87.9,17.9,87.9,19.2z"/>
	</g>
	<polyline class="st0" points="2.8,17.6 45,45 87.2,17.6 	"/>
	<g>
		<path class="st1" d="M48,29.5c-0.1,0.4-0.2,0.8-0.2,1.1c0,0.3,0,0.5,0.1,0.7c0.1,0.2,0.2,0.3,0.3,0.3c0.2,0.1,0.3,0.1,0.5,0.1
			c0.3,0,0.6-0.1,0.8-0.3c0.3-0.2,0.5-0.4,0.7-0.8c0.2-0.3,0.3-0.7,0.5-1.2C50.9,29,51,28.5,51,28c0-0.9-0.1-1.7-0.4-2.3
			c-0.3-0.7-0.7-1.2-1.2-1.7c-0.5-0.5-1.1-0.8-1.8-1c-0.7-0.2-1.4-0.3-2.3-0.3c-0.9,0-1.7,0.2-2.5,0.5c-0.8,0.3-1.4,0.8-2,1.4
			c-0.6,0.6-1,1.3-1.3,2.1c-0.3,0.8-0.5,1.7-0.5,2.6c0,1.1,0.2,2.1,0.5,3c0.3,0.9,0.8,1.6,1.4,2.1s1.3,1,2.1,1.3
			c0.8,0.3,1.7,0.4,2.7,0.4c0.5,0,1,0,1.5-0.1c0.5-0.1,0.9-0.1,1.3-0.2c0.4-0.1,0.7-0.2,1-0.3c0.3-0.1,0.6-0.3,0.8-0.4
			c0.2-0.1,0.3-0.1,0.5-0.1c0.1,0,0.2,0.1,0.3,0.3l0.3,0.9c-0.7,0.5-1.5,0.8-2.5,1.1c-1,0.3-2,0.4-3.3,0.4c-1.2,0-2.4-0.2-3.4-0.6
			c-1.1-0.4-2-0.9-2.7-1.7c-0.8-0.7-1.4-1.6-1.8-2.7c-0.4-1-0.7-2.2-0.7-3.5c0-0.7,0.1-1.4,0.3-2.1c0.2-0.7,0.5-1.3,0.8-1.9
			c0.3-0.6,0.8-1.2,1.3-1.7s1-0.9,1.6-1.3c0.6-0.4,1.3-0.6,2-0.8c0.7-0.2,1.4-0.3,2.2-0.3c1,0,1.9,0.2,2.8,0.5
			c0.9,0.3,1.7,0.8,2.4,1.4c0.7,0.6,1.2,1.3,1.6,2.2c0.4,0.9,0.6,1.9,0.6,2.9c0,0.7-0.1,1.4-0.3,2.1s-0.5,1.2-0.9,1.7
			c-0.4,0.5-0.8,0.8-1.4,1.1c-0.5,0.3-1.1,0.4-1.7,0.4c-0.5,0-0.9-0.1-1.3-0.3c-0.4-0.2-0.6-0.6-0.7-1.1c-0.4,0.5-0.8,0.8-1.3,1.1
			c-0.5,0.2-0.9,0.3-1.5,0.3c-0.4,0-0.8-0.1-1.1-0.2c-0.3-0.2-0.6-0.4-0.8-0.6c-0.2-0.3-0.4-0.6-0.5-0.9c-0.1-0.4-0.2-0.8-0.2-1.2
			c0-0.4,0-0.8,0.1-1.2c0.1-0.4,0.2-0.8,0.4-1.2c0.2-0.4,0.4-0.7,0.7-1c0.3-0.3,0.6-0.6,1-0.9c0.4-0.2,0.9-0.4,1.4-0.6
			c0.5-0.1,1.1-0.2,1.7-0.2c0.5,0,1,0,1.4,0.1c0.4,0.1,0.7,0.2,1.1,0.3L48,29.5z M46.8,26.9c-0.2,0-0.4-0.1-0.7-0.1
			c-0.4,0-0.8,0.1-1.2,0.3c-0.4,0.2-0.7,0.4-1,0.7c-0.3,0.3-0.5,0.7-0.6,1.1c-0.2,0.4-0.2,0.8-0.2,1.3s0.1,0.8,0.3,1
			c0.2,0.2,0.5,0.4,0.8,0.4c0.2,0,0.4,0,0.5-0.1c0.2-0.1,0.4-0.2,0.5-0.3c0.2-0.1,0.3-0.3,0.5-0.6c0.1-0.2,0.2-0.5,0.3-0.9
			L46.8,26.9z"/>
	</g>
</g>
</svg>
