<?xml version="1.0" encoding="utf-8"?>
<!-- Generator: Adobe Illustrator 19.2.1, SVG Export Plug-In . SVG Version: 6.00 Build 0)  -->
<svg version="1.1" id="Warstwa_1" xmlns="http://www.w3.org/2000/svg" xmlns:xlink="http://www.w3.org/1999/xlink" x="0px" y="0px"
	 viewBox="0 0 152 94.7" style="enable-background:new 0 0 152 94.7;" xml:space="preserve">
<style type="text/css">
	.st0{fill:#FFFFFF;}
	.st1{fill:none;stroke:#FFFFFF;stroke-width:7.0866;stroke-linecap:round;stroke-miterlimit:10;}
	.st2{fill:none;stroke:#FFFFFF;stroke-width:7.0866;stroke-miterlimit:10;}
	.st3{fill:#FFFFFF;stroke:#1D1D1B;stroke-width:7.0866;stroke-miterlimit:10;}
</style>
<g>
	<path class="st0" d="M59.8,64.2c-5.5,0-7.1-3.4-3.6-7.7l5.3-6.3c3.5-4.2,9.3-4.2,12.9,0l5.3,6.3c3.5,4.2,1.9,7.7-3.6,7.7H59.8z"/>
</g>
<path class="st1" d="M57.3,37.3L45.5,51.3l-0.5,0.6c-1,1.2-2.3,2.6-2.8,3.2c-0.5,0.6-1.9,1.8-3.2,2.7c0,0-4,2.9-8.1,2.9
	c-7.8,0-14.2-6.3-14.2-14.2c0-7.8,6.3-14.2,14.2-14.2c5.1,0,9.5,2.7,12,6.7"/>
<polyline class="st2" points="94.7,55.8 91.6,52.3 77.8,36.2 "/>
<line class="st1" x1="105.2" y1="29.3" x2="139.5" y2="29.3"/>
<path class="st3" d="M93.5,56.9"/>
<path class="st2" d="M57.3,37.3c2.6-3,6.4-4.9,10.7-4.9c3.8,0,7.2,1.5,9.7,3.9c0.3,0.3,0.6,0.6,0.9,1"/>
<path class="st2" d="M115.9,55.6c-2.6,3-6.4,4.9-10.7,4.9c-3.8,0-7.2-1.5-9.7-3.9c-0.3-0.3-0.6-0.6-0.9-1"/>
<path class="st1" d="M119.3,9.6c0,0,0,32.5,0,36.8c0,3.8-1.5,7.2-3.9,9.7c-0.3,0.3-0.6,0.6-1,0.9"/>
<line class="st1" x1="138.8" y1="60.5" x2="138.8" y2="42.8"/>
<g>
	<path class="st0" d="M26.3,81.8C26.3,81.8,26.3,81.9,26.3,81.8c0,1.3-0.4,2.2-1.1,2.7c-0.6,0.4-1.6,0.6-2.9,0.6h-4.1
		c-0.8,0-1.5-0.1-2-0.2c-0.6-0.1-1-0.3-1.4-0.5c-0.3-0.2-0.6-0.5-0.8-0.9c-0.2-0.3-0.4-0.8-0.5-1.3c-0.1-0.6-0.2-1.8-0.2-3.5
		c0-2,0.4-3.4,1.1-4.2h0c0.7-0.7,2.1-1.1,4.1-1.1h3.8c1.3,0,2.4,0.3,3,0.8c0.7,0.5,1,1.4,1,2.4v0c0,0.1,0,0.2-0.1,0.2H25
		c-0.1,0-0.2-0.1-0.2-0.2v0c0-1.2-0.9-1.8-2.6-1.8h-3.9c-0.7,0-1.2,0-1.6,0.1c-0.4,0.1-0.8,0.2-1,0.3c-0.5,0.3-0.8,0.8-0.9,1.5
		c0,0.2-0.1,0.5-0.1,1c0,0.5,0,1.1,0,1.8c0,0.8,0,1.4,0.1,2c0.1,0.5,0.2,0.9,0.4,1.1c0.4,0.5,1.4,0.7,2.8,0.7h4.2
		c0.9,0,1.5-0.1,1.9-0.3c0.5-0.2,0.7-0.7,0.7-1.5v-0.1c0-0.1,0.1-0.2,0.2-0.2h1.1h0C26.2,81.7,26.2,81.7,26.3,81.8L26.3,81.8z"/>
	<path class="st0" d="M39.6,85.2h-0.1c0,0,0,0,0-0.1l0,0l-1.3-2.6h-7.6l-1.3,2.6v0c0,0,0,0,0,0.1h-0.1h-1.3c-0.1,0-0.2-0.1-0.2-0.2
		v0c0,0,0,0,0-0.1v0l5.7-11.1c0,0,0.1,0,0.1,0h1.7c0,0,0.1,0,0.1,0s0,0,0,0L41,85v0c0,0,0,0,0,0.1v0c0,0.1,0,0.2-0.1,0.2H39.6z
		 M31.3,81.1h6.1l-3-6L31.3,81.1z"/>
	<path class="st0" d="M43.9,75.3V85c0,0.1-0.1,0.2-0.2,0.2h-1.1c-0.1,0-0.1-0.1-0.1-0.2v-9.7h-5.1c-0.1,0-0.2-0.1-0.2-0.2V74
		c0-0.1,0.1-0.2,0.2-0.2h11.7c0.1,0,0.2,0.1,0.2,0.2v1.1c0,0.1-0.1,0.2-0.2,0.2H43.9z"/>
	<path class="st0" d="M50.6,85.2c-0.1,0-0.1-0.1-0.1-0.2V74c0-0.1,0-0.2,0.1-0.2h0.9c0.1,0,0.1,0.1,0.1,0.2V85c0,0.1,0,0.2-0.1,0.2
		H50.6z"/>
	<path class="st0" d="M53.6,81.9c-0.1,0-0.1,0-0.1-0.1v-0.9c0-0.1,0-0.1,0.1-0.1h4.8c0.1,0,0.1,0,0.1,0.1v0.9c0,0.1,0,0.1-0.1,0.1
		H53.6z"/>
	<path class="st0" d="M69.9,84.5c-0.3,0.2-0.7,0.4-1.1,0.5c-0.5,0.1-1,0.2-1.6,0.2h-5.6c-1.1,0-2-0.3-2.6-0.8
		c-0.7-0.6-1.1-1.4-1.1-2.5c0-0.1,0-0.2,0.1-0.2h1.1c0.1,0,0.2,0.1,0.2,0.2c0,0.4,0.1,0.7,0.2,0.9s0.3,0.4,0.6,0.6
		c0.2,0.1,0.4,0.2,0.8,0.2c0.3,0.1,0.7,0.1,1.1,0.1h5.2c0.4,0,0.7,0,1-0.1c0.3-0.1,0.5-0.1,0.7-0.3c0.2-0.1,0.4-0.3,0.5-0.6
		c0.1-0.3,0.1-0.6,0.1-0.9c0-0.7-0.3-1.2-1-1.5c-0.3-0.1-0.6-0.2-1-0.3c-0.4,0-0.9-0.1-1.5-0.1c-0.1,0-0.3,0-0.4,0
		c-0.2,0-0.3,0-0.6,0h-0.3h-0.3c0,0-0.1,0-0.1,0c0,0-0.1,0-0.1,0h-0.2c-0.3,0-0.5,0-0.7,0s-0.3,0-0.5,0c-1.5,0-2.7-0.2-3.4-0.5
		c-1-0.5-1.5-1.4-1.5-2.7c0-2.1,1.2-3.1,3.5-3.1H67c2.6,0,3.9,1.1,3.9,3.3c0,0.1,0,0.1-0.1,0.1h-1.2c-0.1,0-0.1,0-0.1-0.1
		c0-0.3-0.1-0.7-0.2-0.9c-0.1-0.3-0.3-0.5-0.6-0.6c-0.4-0.2-1-0.3-1.8-0.3h-5.5c-0.4,0-0.7,0-0.9,0.1c-0.2,0.1-0.4,0.1-0.6,0.2
		c-0.3,0.2-0.5,0.7-0.5,1.3s0.3,1.1,1,1.4c0.6,0.2,1.4,0.3,2.5,0.3c0.1,0,0.3,0,0.6,0c0.3,0,0.6,0,0.9,0c0,0,0.1,0,0.1,0
		c0,0,0.1,0,0.1,0h0.2c0.2,0,0.4,0,0.6,0c0.2,0,0.3,0,0.4,0c0.8,0,1.5,0,2.1,0.1c0.6,0.1,1.1,0.2,1.5,0.4c1.1,0.5,1.6,1.4,1.6,2.8
		C70.9,83.1,70.6,84,69.9,84.5z"/>
	<path class="st0" d="M79.4,79.8V85c0,0.1-0.1,0.2-0.2,0.2H78c-0.1,0-0.1-0.1-0.1-0.2v-5.2l-5.6-5.8c0,0,0,0,0-0.1c0,0,0,0,0-0.1
		c0-0.1,0.1-0.2,0.2-0.2h1.5c0,0,0,0,0.1,0s0,0,0.1,0l4.6,4.7l4.6-4.7c0,0,0.1,0,0.1,0h1.6c0.1,0,0.1,0.1,0.1,0.2c0,0,0,0,0,0.1
		c0,0,0,0,0,0.1L79.4,79.8z"/>
	<path class="st0" d="M98.5,84.5c-0.3,0.2-0.7,0.4-1.1,0.5c-0.5,0.1-1,0.2-1.6,0.2h-5.6c-1.1,0-2-0.3-2.6-0.8
		c-0.7-0.6-1.1-1.4-1.1-2.5c0-0.1,0-0.2,0.1-0.2h1.1c0.1,0,0.2,0.1,0.2,0.2c0,0.4,0.1,0.7,0.2,0.9s0.3,0.4,0.6,0.6
		c0.2,0.1,0.4,0.2,0.8,0.2c0.3,0.1,0.7,0.1,1.1,0.1h5.2c0.4,0,0.7,0,1-0.1c0.3-0.1,0.5-0.1,0.7-0.3c0.2-0.1,0.4-0.3,0.5-0.6
		c0.1-0.3,0.1-0.6,0.1-0.9c0-0.7-0.3-1.2-1-1.5c-0.3-0.1-0.6-0.2-1-0.3c-0.4,0-0.9-0.1-1.5-0.1c-0.1,0-0.3,0-0.4,0
		c-0.2,0-0.3,0-0.6,0h-0.3h-0.3c0,0-0.1,0-0.1,0c0,0-0.1,0-0.1,0h-0.2c-0.3,0-0.5,0-0.7,0c-0.2,0-0.3,0-0.5,0
		c-1.5,0-2.7-0.2-3.4-0.5c-1-0.5-1.5-1.4-1.5-2.7c0-2.1,1.2-3.1,3.5-3.1h5.7c2.6,0,3.9,1.1,3.9,3.3c0,0.1,0,0.1-0.1,0.1h-1.2
		c-0.1,0-0.1,0-0.1-0.1c0-0.3-0.1-0.7-0.2-0.9s-0.3-0.5-0.6-0.6c-0.4-0.2-1-0.3-1.8-0.3h-5.5c-0.4,0-0.7,0-0.9,0.1
		c-0.2,0.1-0.4,0.1-0.6,0.2c-0.3,0.2-0.5,0.7-0.5,1.3s0.3,1.1,1,1.4c0.6,0.2,1.4,0.3,2.5,0.3c0.1,0,0.3,0,0.6,0c0.3,0,0.6,0,0.9,0
		c0,0,0.1,0,0.1,0c0,0,0.1,0,0.1,0h0.2c0.2,0,0.4,0,0.6,0c0.2,0,0.3,0,0.4,0c0.8,0,1.5,0,2.1,0.1c0.6,0.1,1.1,0.2,1.5,0.4
		c1.1,0.5,1.6,1.4,1.6,2.8C99.5,83.1,99.1,84,98.5,84.5z"/>
	<path class="st0" d="M107.4,75.3V85c0,0.1-0.1,0.2-0.2,0.2h-1.1c-0.1,0-0.1-0.1-0.1-0.2v-9.7h-5.1c-0.1,0-0.2-0.1-0.2-0.2V74
		c0-0.1,0.1-0.2,0.2-0.2h11.7c0.1,0,0.2,0.1,0.2,0.2v1.1c0,0.1-0.1,0.2-0.2,0.2H107.4z"/>
	<path class="st0" d="M114.2,85.2c-0.1,0-0.2-0.1-0.2-0.2V74c0-0.1,0.1-0.2,0.2-0.2h9.6c0.1,0,0.1,0.1,0.1,0.2v1.1
		c0,0.1,0,0.2-0.1,0.2h-8.3v3.3h8c0.1,0,0.1,0.1,0.1,0.2v1.1c0,0.1,0,0.2-0.1,0.2h-8v3.6h8.3c0.1,0,0.1,0.1,0.1,0.2V85
		c0,0.1,0,0.2-0.1,0.2H114.2z"/>
	<path class="st0" d="M140.4,85.2c-0.1,0-0.2-0.1-0.2-0.2V75h-0.3L134,85.1c0,0-0.1,0-0.1,0h-0.8c0,0,0,0-0.1,0L127.2,75h-0.3v10
		c0,0.1-0.1,0.2-0.2,0.2h-1.2c-0.1,0-0.2-0.1-0.2-0.2V74c0-0.1,0.1-0.2,0.2-0.2h2.6c0,0,0.1,0,0.1,0l5.3,9.3l5.4-9.3
		c0,0,0.1,0,0.1,0h2.4c0.1,0,0.1,0.1,0.1,0.2V85c0,0.1,0,0.2-0.1,0.2H140.4z"/>
</g>
</svg>
