<?xml version="1.0" encoding="utf-8"?>
<!-- Generator: Adobe Illustrator 19.2.1, SVG Export Plug-In . SVG Version: 6.00 Build 0)  -->
<svg version="1.1" id="Warstwa_1" xmlns="http://www.w3.org/2000/svg" xmlns:xlink="http://www.w3.org/1999/xlink" x="0px" y="0px"
	 viewBox="0 0 600 296" style="enable-background:new 0 0 600 296;" xml:space="preserve">
<style type="text/css">
	.st0{fill:#28B4B8;}
	.st1{fill:#0E3534;}
	.st2{display:none;}
	.st3{display:inline;}
	.st4{fill:url(#SVGID_1_);}
	.st5{fill:url(#SVGID_2_);}
	.st6{fill:url(#SVGID_3_);}
	.st7{fill:url(#SVGID_4_);}
	.st8{fill:url(#SVGID_5_);}
	.st9{display:inline;fill:#28B4B8;}
	.st10{enable-background:new    ;}
</style>
<g id="Warstwa_1_1_">
	<g>
		<g>
			<g>
				<g id="XMLID_4_">
					<path class="st0" d="M323.3,85.7c-0.5-3.8-1.3-7.4-2.4-10.8c-2.1-6.5-5.2-12.1-9.1-16.6c-1.2-1.4-2.5-2.7-3.9-3.9V36.9h26.8
						c1.8,0,3.5,0,5.2,0.2c7.5,7.5,13.2,16.4,17.3,26.7c1.6,4.1,2.9,8.2,3.9,12.5c1.5,6.6,2.3,13.5,2.3,20.7
						c0,5.5-0.4,10.7-1.3,15.8c-1,6.1-2.7,11.9-4.9,17.5c-4.1,10.2-9.8,19.1-17.2,26.6c-0.1,0-0.2,0-0.3,0h-31.8v-17.3
						c1.4-1.2,2.7-2.5,3.9-3.9c4-4.5,7-10.1,9.1-16.6c1.2-3.6,2-7.5,2.5-11.7c0.4-3.3,0.6-6.8,0.6-10.5
						C324.1,93.1,323.8,89.3,323.3,85.7z"/>
					<path class="st1" d="M401.7,131.9c0,7.2-1.4,13.8-4.1,19.9c-2.7,6.1-6.7,11.3-11.9,15.7c-5.2,4.4-11.6,7.9-19.3,10.3
						c-7.6,2.5-16.4,3.7-26.2,3.7h-62.7c12.9,0,24.6-2.2,35.1-6.5c10.6-4.3,19.6-10.3,27.1-17.9c0.1-0.1,0.1-0.1,0.2-0.2
						c5.7,0,10.5-0.7,14.4-2.1c4-1.4,7.1-3.3,9.5-5.6s4.1-5.1,5.2-8.2c1-3.1,1.6-6.4,1.6-9.9c0-3.7-0.6-6.9-1.8-9.9
						c-1.2-2.9-3-5.4-5.5-7.5c-0.4-0.3-0.9-0.7-1.3-1c0.9-5.1,1.3-10.4,1.3-15.8c0-7.2-0.8-14.1-2.3-20.7c3-3.8,4.4-8.7,4.4-15
						c0-8.8-2.5-15.1-7.5-18.8c-4.1-3.1-10.2-4.9-18.2-5.4c0,0,0-0.1-0.1-0.1c-7.5-7.6-16.5-13.5-27.1-17.9
						c-10.5-4.3-22.3-6.5-35.1-6.5h57.1c11,0,20.5,1.1,28.4,3.2s14.3,5.1,19.3,9s8.7,8.6,11,14.1s3.5,11.8,3.5,18.7
						c0,4-0.6,7.8-1.8,11.4c-1.2,3.6-3,7-5.4,10.2s-5.6,6-9.3,8.6c-3.8,2.6-8.3,4.8-13.5,6.5C390.1,99.5,401.7,112,401.7,131.9z"/>
					<path class="st1" d="M323.3,85.7c0.5,3.6,0.7,7.3,0.7,11.3c0,3.7-0.2,7.1-0.6,10.5h-15.6v32.2c-3.1,2.7-6.7,4.9-10.7,6.5
						c-5.8,2.4-12.3,3.6-19.6,3.6c-0.4,0-0.7,0-1.1,0V44.3c0.4,0,0.7,0,1.1,0c7.3,0,13.9,1.2,19.6,3.6c4,1.7,7.5,3.9,10.7,6.6v31.3
						L323.3,85.7L323.3,85.7z"/>
					<path class="st1" d="M277.6,12.6c-0.4,0-0.7,0-1.1,0l0,0H277.6z"/>
					<path class="st1" d="M277.6,181.6h-1.1l0,0C276.8,181.6,277.2,181.6,277.6,181.6z"/>
				</g>
			</g>
		</g>
		<g>
			<g>
				<g id="XMLID_3_">
					<path class="st0" d="M361.1,76.3c-1.1,1.4-2.3,2.6-3.8,3.6c-5.5,3.9-13.6,5.8-24.4,5.8h-9.5c-0.5-3.8-1.3-7.4-2.4-10.8
						c-2.1-6.5-5.2-12.1-9.1-16.6c-1.2-1.4-2.5-2.7-3.9-3.9V36.9h26.8c1.8,0,3.5,0,5.2,0.2c7.5,7.5,13.2,16.4,17.3,26.7
						C358.8,67.8,360.1,72,361.1,76.3z"/>
					<path class="st1" d="M277.6,181.6h-1.1l0,0v-31.8V44.3V12.6l0,0h1.1c12.9,0,24.6,2.2,35.1,6.5c10.5,4.4,19.6,10.3,27.1,17.9
						l0.1,0.1c-1.6-0.1-3.4-0.2-5.2-0.2h-26.8v17.6v31.3h15.5c0.5,3.6,0.7,7.3,0.7,11.3c0,3.7-0.2,7.1-0.6,10.5h-15.6v32.2V157h31.8
						c0.1,0,0.2,0,0.3,0c-0.1,0.1-0.1,0.1-0.2,0.2c-7.5,7.6-16.5,13.6-27.1,17.9C302.1,179.4,290.4,181.6,277.6,181.6z"/>
					<path class="st0" d="M276.5,149.8v31.8c-12.4-0.1-23.8-2.3-34.1-6.5c-10.6-4.3-19.6-10.3-27.2-17.9s-13.3-16.6-17.5-26.8
						c-4.1-10.3-6.2-21.4-6.2-33.4s2.1-23.1,6.2-33.4c4.1-10.3,9.9-19.2,17.5-26.8c7.5-7.6,16.6-13.5,27.2-17.8
						c10.3-4.2,21.6-6.3,34.1-6.5v31.7c-7,0.1-13.2,1.3-18.7,3.6c-5.8,2.4-10.7,5.9-14.6,10.4s-7,10.1-9.1,16.6s-3.2,13.9-3.2,22.1
						s1.1,15.6,3.2,22.2c2.1,6.5,5.2,12.1,9.1,16.6c4,4.5,8.9,8,14.6,10.4C263.3,148.5,269.5,149.7,276.5,149.8z"/>
					<path class="st0" d="M362,112.9c-1,6.1-2.7,11.9-4.9,17.5c-4.1,10.2-9.8,19.1-17.2,26.6c-0.1,0-0.2,0-0.3,0h-31.8v-17.3
						c1.4-1.2,2.7-2.5,3.9-3.9c4-4.5,7-10.1,9.1-16.6c1.2-3.6,2-7.5,2.5-11.7h16.1c5.5,0,10.3,0.5,14.2,1.6
						C357,110,359.8,111.3,362,112.9z"/>
				</g>
			</g>
		</g>
	</g>
	<g class="st2">
		<g class="st3">
			<g>
				<g>
					<g id="XMLID_1_">
						<path class="st1" d="M323.3,85.7h-15.5V54.5V36.9h26.8c1.8,0,3.5,0,5.2,0.2c8,0.5,14.1,2.3,18.2,5.4c5,3.7,7.5,10,7.5,18.8
							c0,6.2-1.5,11.2-4.4,15c1.5,6.6,2.3,13.5,2.3,20.7c0,5.5-0.4,10.7-1.3,15.8c0.5,0.3,0.9,0.6,1.3,1c2.5,2.1,4.3,4.6,5.5,7.5
							s1.8,6.2,1.8,9.9c0,3.5-0.5,6.8-1.6,9.9c-1.1,3.1-2.8,5.8-5.2,8.2c-2.4,2.3-5.5,4.2-9.5,5.6c-3.9,1.4-8.7,2.1-14.4,2.1l0,0
							c-0.1,0-0.2,0-0.3,0h-31.8v-17.3v-32.2h15.6c0.4-3.3,0.6-6.8,0.6-10.5C324.1,93.1,323.8,89.3,323.3,85.7z M277.6,181.6h-1.1
							l0,0v-31.8V44.3V12.6l0,0h1.1h57.1c7.6,0,14.4,0.5,20.5,1.5c1.1,0.2,2.2,0.4,3.3,0.6c1.6,0.3,3.1,0.7,4.6,1.1
							c1.5,0.4,2.9,0.8,4.3,1.3c6,2,11,4.6,15.1,7.7c5,3.9,8.7,8.6,11,14.1s3.5,11.8,3.5,18.7c0,4-0.6,7.8-1.8,11.4
							c-1.2,3.6-3,7-5.4,10.2s-5.6,6-9.3,8.6c-3.8,2.6-8.3,4.8-13.5,6.5c23.2,5.2,34.8,17.8,34.8,37.6c0,7.2-1.4,13.8-4.1,19.9
							c-2.7,6.1-6.7,11.3-11.9,15.7c-5.2,4.4-11.6,7.9-19.3,10.3c-7.6,2.5-16.4,3.7-26.2,3.7h-62.7V181.6z"/>
						<path class="st0" d="M363.3,97c0,5.5-0.4,10.7-1.3,15.8c-2.3-1.6-5-2.8-8.3-3.7c-3.9-1.1-8.7-1.6-14.2-1.6h-16.1
							c0.4-3.3,0.6-6.8,0.6-10.5c0-3.9-0.3-7.7-0.7-11.3h9.5c10.8,0,18.9-1.9,24.4-5.8c1.5-1,2.8-2.3,3.8-3.6
							C362.6,82.9,363.3,89.8,363.3,97z"/>
					</g>
				</g>
			</g>
		</g>
		<g class="st3">
			<g>
				<g>
					<g id="XMLID_5_">
						
							<linearGradient id="SVGID_1_" gradientUnits="userSpaceOnUse" x1="191.8219" y1="198.84" x2="276.7119" y2="198.84" gradientTransform="matrix(1 0 0 -1 0 295.89)">
							<stop  offset="0" style="stop-color:#28B4B8"/>
							<stop  offset="0.4254" style="stop-color:#28B2B6;stop-opacity:0.9149"/>
							<stop  offset="0.5786" style="stop-color:#26ACAF;stop-opacity:0.8843"/>
							<stop  offset="0.6878" style="stop-color:#24A0A4;stop-opacity:0.8624"/>
							<stop  offset="0.7761" style="stop-color:#219093;stop-opacity:0.8448"/>
							<stop  offset="0.8518" style="stop-color:#1C7B7D;stop-opacity:0.8296"/>
							<stop  offset="0.9187" style="stop-color:#176161;stop-opacity:0.8163"/>
							<stop  offset="0.9778" style="stop-color:#114242;stop-opacity:0.8044"/>
							<stop  offset="1" style="stop-color:#0E3534;stop-opacity:0.8"/>
						</linearGradient>
						<path class="st4" d="M276.7,149.8v31.8c-12.4-0.1-23.8-2.3-34.1-6.5c-10.6-4.3-19.7-10.3-27.2-17.9
							c-7.5-7.6-13.4-16.6-17.5-26.8c-4.1-10.3-6.2-21.4-6.2-33.4s2.1-23.1,6.2-33.4s9.9-19.2,17.5-26.8
							c7.5-7.6,16.6-13.5,27.2-17.8c10.3-4.2,21.6-6.3,34.1-6.5v31.7c-7,0.1-13.2,1.3-18.7,3.6c-5.8,2.4-10.7,5.9-14.6,10.4
							c-4,4.5-7,10.1-9.1,16.6s-3.2,13.9-3.2,22.1s1.1,15.6,3.2,22.2s5.2,12.1,9.1,16.6c4,4.5,8.9,8,14.6,10.4
							C263.5,148.5,269.8,149.7,276.7,149.8z"/>
						
							<linearGradient id="SVGID_2_" gradientUnits="userSpaceOnUse" x1="276.7119" y1="114.29" x2="277.8219" y2="114.29" gradientTransform="matrix(1 0 0 -1 0 295.89)">
							<stop  offset="0" style="stop-color:#28B4B8"/>
							<stop  offset="0.4254" style="stop-color:#28B2B6;stop-opacity:0.9149"/>
							<stop  offset="0.5786" style="stop-color:#26ACAF;stop-opacity:0.8843"/>
							<stop  offset="0.6878" style="stop-color:#24A0A4;stop-opacity:0.8624"/>
							<stop  offset="0.7761" style="stop-color:#219093;stop-opacity:0.8448"/>
							<stop  offset="0.8518" style="stop-color:#1C7B7D;stop-opacity:0.8296"/>
							<stop  offset="0.9187" style="stop-color:#176161;stop-opacity:0.8163"/>
							<stop  offset="0.9778" style="stop-color:#114242;stop-opacity:0.8044"/>
							<stop  offset="1" style="stop-color:#0E3534;stop-opacity:0.8"/>
						</linearGradient>
						<path class="st5" d="M277.8,181.6h-1.1l0,0C277.1,181.6,277.5,181.6,277.8,181.6z"/>
						
							<linearGradient id="SVGID_3_" gradientUnits="userSpaceOnUse" x1="276.7119" y1="283.29" x2="277.8219" y2="283.29" gradientTransform="matrix(1 0 0 -1 0 295.89)">
							<stop  offset="0" style="stop-color:#28B4B8"/>
							<stop  offset="0.4254" style="stop-color:#28B2B6;stop-opacity:0.9149"/>
							<stop  offset="0.5786" style="stop-color:#26ACAF;stop-opacity:0.8843"/>
							<stop  offset="0.6878" style="stop-color:#24A0A4;stop-opacity:0.8624"/>
							<stop  offset="0.7761" style="stop-color:#219093;stop-opacity:0.8448"/>
							<stop  offset="0.8518" style="stop-color:#1C7B7D;stop-opacity:0.8296"/>
							<stop  offset="0.9187" style="stop-color:#176161;stop-opacity:0.8163"/>
							<stop  offset="0.9778" style="stop-color:#114242;stop-opacity:0.8044"/>
							<stop  offset="1" style="stop-color:#0E3534;stop-opacity:0.8"/>
						</linearGradient>
						<path class="st6" d="M277.8,12.6c-0.4,0-0.7,0-1.1,0l0,0H277.8z"/>
					</g>
				</g>
			</g>
		</g>
		<g class="st3">
			<g>
				<g>
					<g id="XMLID_2_">
						
							<linearGradient id="SVGID_4_" gradientUnits="userSpaceOnUse" x1="305.1612" y1="259.6765" x2="358.5873" y2="188.2798" gradientTransform="matrix(1 0 0 -1 0 295.89)">
							<stop  offset="0" style="stop-color:#0E3534;stop-opacity:0.8"/>
							<stop  offset="2.455996e-002" style="stop-color:#103F3E;stop-opacity:0.8065"/>
							<stop  offset="0.1263" style="stop-color:#176363;stop-opacity:0.8337"/>
							<stop  offset="0.2328" style="stop-color:#1D8082;stop-opacity:0.8621"/>
							<stop  offset="0.3438" style="stop-color:#22979A;stop-opacity:0.8917"/>
							<stop  offset="0.4614" style="stop-color:#25A7AB;stop-opacity:0.9231"/>
							<stop  offset="0.59" style="stop-color:#27B1B5;stop-opacity:0.9573"/>
							<stop  offset="0.75" style="stop-color:#28B4B8"/>
						</linearGradient>
						<path class="st7" d="M323.3,85.7c-0.5-3.8-1.3-7.4-2.4-10.8c-2.1-6.5-5.2-12.1-9.1-16.6c-1.2-1.4-2.5-2.7-3.9-3.9V36.9h26.8
							c1.8,0,3.5,0,5.2,0.2c7.5,7.5,13.2,16.5,17.3,26.7c1.6,4,2.9,8.2,3.9,12.5c1.5,6.6,2.3,13.5,2.3,20.7c0,5.4-0.4,10.7-1.3,15.8
							c-2.3-1.6-5-2.8-8.3-3.7c-3.9-1.1-8.7-1.6-14.2-1.6h-16.1c0.4-3.3,0.6-6.8,0.6-10.4C324.1,93,323.8,89.3,323.3,85.7z"/>
					</g>
				</g>
			</g>
		</g>
		<g class="st3">
			<g>
				<g>
					<g id="XMLID_8_">
						
							<linearGradient id="SVGID_5_" gradientUnits="userSpaceOnUse" x1="305.2261" y1="137.9792" x2="358.6523" y2="209.3759" gradientTransform="matrix(1 0 0 -1 0 295.89)">
							<stop  offset="0" style="stop-color:#0E3534;stop-opacity:0.8"/>
							<stop  offset="2.455996e-002" style="stop-color:#103F3E;stop-opacity:0.8065"/>
							<stop  offset="0.1263" style="stop-color:#176363;stop-opacity:0.8337"/>
							<stop  offset="0.2328" style="stop-color:#1D8082;stop-opacity:0.8621"/>
							<stop  offset="0.3438" style="stop-color:#22979A;stop-opacity:0.8917"/>
							<stop  offset="0.4614" style="stop-color:#25A7AB;stop-opacity:0.9231"/>
							<stop  offset="0.59" style="stop-color:#27B1B5;stop-opacity:0.9573"/>
							<stop  offset="0.75" style="stop-color:#28B4B8"/>
						</linearGradient>
						<path class="st8" d="M323.3,108.4c-0.5,3.8-1.3,7.4-2.4,10.8c-2.1,6.5-5.2,12.1-9.1,16.6c-1.2,1.4-2.5,2.7-3.9,3.9v17.6h26.8
							c1.8,0,3.5-0.1,5.2-0.2c7.5-7.5,13.2-16.4,17.3-26.7c1.6-4.1,2.9-8.2,3.9-12.5c1.5-6.6,2.3-13.5,2.3-20.7
							c0-5.4-0.4-10.7-1.3-15.8c-2.3,1.6-5,2.8-8.3,3.7c-3.9,1.1-8.7,1.6-14.2,1.6h-16.1c0.4,3.3,0.6,6.8,0.6,10.4
							C324,101,323.8,104.8,323.3,108.4z"/>
					</g>
				</g>
			</g>
		</g>
	</g>
	<g class="st2">
		<path class="st3" d="M74.5,220.6c6,0,10.4,1.2,13.3,3.6c2.9,2.4,4.4,5.8,4.4,10.2c0,1.5-0.3,3-0.9,4.4s-1.4,2.7-2.4,3.9
			s-2.3,2.2-3.7,3c-1.5,0.8-3.1,1.4-4.9,1.8c2.2,0.2,4.2,0.7,6,1.4s3.3,1.6,4.5,2.8c1.2,1.1,2.2,2.5,2.8,4c0.6,1.5,1,3.3,1,5.2
			c0,2.3-0.4,4.4-1.2,6.2c-0.8,1.8-2,3.3-3.5,4.6s-3.4,2.2-5.7,2.8c-2.2,0.6-4.8,1-7.6,1h-17v-54.8L74.5,220.6L74.5,220.6z
			 M61.8,222.3v24.5h13c2.8,0,5.1-0.4,7-1.1c1.9-0.7,3.5-1.7,4.8-2.9c1.2-1.2,2.1-2.5,2.7-4s0.8-2.9,0.8-4.3c0-3.9-1.3-6.9-3.8-9
			c-2.6-2.1-6.5-3.2-11.8-3.2H61.8z M76.5,273.7c5.1,0,9.1-1.1,11.8-3.3c2.7-2.2,4.1-5.4,4.1-9.6c0-1.9-0.4-3.6-1.1-5.1
			c-0.7-1.5-1.8-2.8-3.2-3.9c-1.4-1.1-3-1.9-5-2.5s-4.2-0.9-6.6-0.9H61.8v25.2L76.5,273.7L76.5,273.7z"/>
		<path class="st3" d="M104.7,242.4c1.9-2,3.9-3.5,6-4.5s4.5-1.6,7.2-1.6c2,0,3.7,0.3,5.2,1c1.5,0.6,2.7,1.6,3.7,2.7
			c1,1.2,1.7,2.6,2.2,4.3s0.7,3.6,0.7,5.8v25.3H129c-0.5,0-0.8-0.3-0.9-0.8l-0.4-5.7c-1.1,1.1-2.1,2.1-3.2,3s-2.2,1.6-3.4,2.2
			c-1.2,0.6-2.5,1.1-3.9,1.4s-2.9,0.5-4.6,0.5c-1.2,0-2.4-0.2-3.6-0.5c-1.2-0.4-2.3-0.9-3.2-1.7c-1-0.8-1.7-1.8-2.3-3
			c-0.6-1.2-0.9-2.7-0.9-4.5c0-1.7,0.5-3.2,1.5-4.6s2.5-2.6,4.5-3.6c2.1-1,4.7-1.8,7.8-2.4c3.1-0.6,6.9-0.9,11.2-1v-4.6
			c0-3.8-0.8-6.8-2.5-9c-1.7-2.1-4.1-3.2-7.4-3.2c-1.9,0-3.6,0.3-5,0.8c-1.4,0.6-2.6,1.2-3.5,1.9s-1.7,1.3-2.2,1.9
			c-0.6,0.6-1,0.8-1.3,0.8s-0.5-0.1-0.7-0.4L104.7,242.4z M127.7,256.2c-7.9,0.3-13.7,1.2-17.4,2.9c-3.8,1.7-5.6,4.1-5.6,7.1
			c0,1.4,0.2,2.7,0.7,3.7s1.1,1.9,1.9,2.6s1.7,1.2,2.7,1.5s2.1,0.5,3.1,0.5c1.7,0,3.2-0.2,4.6-0.6s2.7-0.9,3.8-1.5
			c1.2-0.6,2.3-1.4,3.3-2.3s2-1.8,2.9-2.8V256.2z"/>
		<path class="st3" d="M171.9,219v56.4H171c-0.5,0-0.8-0.3-0.8-0.8l-0.2-6.9c-1.7,2.5-3.8,4.5-6.1,5.9c-2.4,1.4-5,2.2-7.9,2.2
			c-4.9,0-8.6-1.6-11.3-4.8c-2.6-3.2-3.9-8.2-3.9-14.8c0-2.8,0.4-5.4,1.1-7.8c0.7-2.4,1.8-4.5,3.2-6.3s3.2-3.2,5.3-4.2
			s4.5-1.5,7.3-1.5s5.1,0.5,7.2,1.6c2,1.1,3.8,2.6,5.2,4.7V219H171.9z M169.9,244.7c-1.6-2.5-3.4-4.2-5.3-5.2c-2-1-4.2-1.5-6.7-1.5
			s-4.7,0.5-6.6,1.4c-1.9,0.9-3.4,2.2-4.7,3.8s-2.2,3.6-2.8,5.8s-0.9,4.7-0.9,7.3c0,6.1,1.2,10.6,3.5,13.6c2.3,2.9,5.7,4.4,10.1,4.4
			c2.7,0,5.2-0.7,7.5-2.2s4.3-3.5,6-6.2v-21.2H169.9z"/>
		<path class="st3" d="M184.5,242.4c1.9-2,3.9-3.5,6-4.5s4.5-1.6,7.2-1.6c2,0,3.7,0.3,5.2,1c1.5,0.6,2.7,1.6,3.7,2.7
			c1,1.2,1.7,2.6,2.2,4.3s0.7,3.6,0.7,5.8v25.3h-0.7c-0.5,0-0.8-0.3-0.9-0.8l-0.4-5.7c-1.1,1.1-2.1,2.1-3.2,3
			c-1.1,0.9-2.2,1.6-3.4,2.2s-2.5,1.1-3.9,1.4s-2.9,0.5-4.6,0.5c-1.2,0-2.4-0.2-3.6-0.5c-1.2-0.4-2.3-0.9-3.2-1.7
			c-1-0.8-1.7-1.8-2.3-3s-0.9-2.7-0.9-4.5c0-1.7,0.5-3.2,1.5-4.6s2.5-2.6,4.5-3.6c2.1-1,4.7-1.8,7.8-2.4c3.1-0.6,6.9-0.9,11.2-1
			v-4.6c0-3.8-0.8-6.8-2.5-9c-1.7-2.1-4.1-3.2-7.4-3.2c-1.9,0-3.6,0.3-5,0.8c-1.4,0.6-2.6,1.2-3.5,1.9s-1.7,1.3-2.2,1.9
			c-0.6,0.6-1,0.8-1.3,0.8s-0.5-0.1-0.7-0.4L184.5,242.4z M207.5,256.2c-7.9,0.3-13.7,1.2-17.4,2.9c-3.8,1.7-5.6,4.1-5.6,7.1
			c0,1.4,0.2,2.7,0.7,3.7s1.1,1.9,1.9,2.6c0.8,0.7,1.7,1.2,2.7,1.5s2.1,0.5,3.1,0.5c1.7,0,3.2-0.2,4.6-0.6c1.4-0.4,2.7-0.9,3.8-1.5
			c1.2-0.6,2.3-1.4,3.3-2.3s2-1.8,2.9-2.8V256.2z"/>
		<path class="st3" d="M224.9,244.4c1.8-2.5,3.9-4.4,6.4-5.9s5.2-2.2,8.1-2.2c2.1,0,4,0.3,5.6,1s2.9,1.6,4,2.8s1.8,2.7,2.4,4.5
			c0.5,1.8,0.8,3.8,0.8,6.1v24.6h-2.1v-24.6c0-2-0.2-3.8-0.7-5.4c-0.4-1.6-1.1-2.9-2-4s-2.1-2-3.5-2.5c-1.4-0.6-3-0.9-4.9-0.9
			c-2.8,0-5.4,0.7-7.8,2.2s-4.5,3.5-6.3,6.1v29.1h-2.1V237h1c0.5,0,0.8,0.3,0.8,0.8L224.9,244.4z"/>
		<path class="st3" d="M269.7,223.1c0,0.4-0.1,0.7-0.2,1c-0.2,0.3-0.4,0.6-0.6,0.8s-0.5,0.4-0.9,0.6c-0.3,0.1-0.7,0.2-1,0.2
			c-0.7,0-1.4-0.3-1.9-0.8s-0.8-1.2-0.8-1.9s0.3-1.4,0.8-1.9s1.2-0.8,1.9-0.8c0.3,0,0.7,0.1,1,0.2c0.3,0.1,0.6,0.3,0.9,0.6
			c0.2,0.2,0.4,0.5,0.6,0.9C269.6,222.4,269.7,222.7,269.7,223.1z M268,237v38.5h-2V237H268z"/>
		<path class="st3" d="M281,242.4c1.9-2,3.9-3.5,6-4.5s4.5-1.6,7.2-1.6c2,0,3.7,0.3,5.2,1c1.5,0.6,2.7,1.6,3.7,2.7
			c1,1.2,1.7,2.6,2.2,4.3s0.7,3.6,0.7,5.8v25.3h-0.7c-0.5,0-0.8-0.3-0.9-0.8l-0.4-5.7c-1.1,1.1-2.1,2.1-3.2,3s-2.2,1.6-3.4,2.2
			c-1.2,0.6-2.5,1.1-3.9,1.4s-2.9,0.5-4.6,0.5c-1.2,0-2.4-0.2-3.6-0.5c-1.2-0.4-2.3-0.9-3.2-1.7c-1-0.8-1.7-1.8-2.3-3
			c-0.6-1.2-0.9-2.7-0.9-4.5c0-1.7,0.5-3.2,1.5-4.6s2.5-2.6,4.5-3.6c2.1-1,4.7-1.8,7.8-2.4c3.1-0.6,6.9-0.9,11.2-1v-4.6
			c0-3.8-0.8-6.8-2.5-9c-1.7-2.1-4.1-3.2-7.4-3.2c-1.9,0-3.6,0.3-5,0.8c-1.4,0.6-2.6,1.2-3.5,1.9s-1.7,1.3-2.2,1.9
			c-0.6,0.6-1,0.8-1.3,0.8s-0.5-0.1-0.7-0.4L281,242.4z M304.1,256.2c-7.9,0.3-13.7,1.2-17.4,2.9c-3.8,1.7-5.6,4.1-5.6,7.1
			c0,1.4,0.2,2.7,0.7,3.7s1.1,1.9,1.9,2.6s1.7,1.2,2.7,1.5s2.1,0.5,3.1,0.5c1.7,0,3.2-0.2,4.6-0.6s2.7-0.9,3.8-1.5
			c1.2-0.6,2.3-1.4,3.3-2.3s2-1.8,2.9-2.8V256.2z"/>
		<path class="st9" d="M395.6,247c0,4.1-0.7,7.9-2.1,11.5c-1.4,3.6-3.4,6.6-6,9.2s-5.7,4.7-9.3,6.1c-3.6,1.5-7.7,2.2-12.1,2.2
			s-8.5-0.7-12.1-2.2s-6.8-3.5-9.3-6.1c-2.6-2.6-4.6-5.7-6-9.2c-1.4-3.5-2.1-7.4-2.1-11.5s0.7-7.9,2.1-11.5c1.4-3.5,3.4-6.6,6-9.2
			s5.7-4.6,9.3-6.1c3.6-1.5,7.7-2.2,12.1-2.2s8.4,0.7,12.1,2.2s6.7,3.5,9.3,6.1s4.6,5.7,6,9.2C394.9,239.1,395.6,242.9,395.6,247z
			 M382.1,247c0-2.8-0.4-5.3-1.1-7.6c-0.7-2.2-1.8-4.2-3.1-5.7c-1.4-1.6-3-2.8-5-3.6s-4.2-1.2-6.7-1.2s-4.8,0.4-6.8,1.2
			s-3.7,2-5,3.6c-1.4,1.6-2.4,3.5-3.1,5.7s-1.1,4.8-1.1,7.6s0.4,5.4,1.1,7.6c0.7,2.2,1.8,4.2,3.1,5.7c1.4,1.6,3,2.7,5,3.6
			c2,0.8,4.3,1.2,6.8,1.2s4.8-0.4,6.7-1.2c2-0.8,3.6-2,5-3.6s2.4-3.5,3.1-5.7C381.8,252.4,382.1,249.8,382.1,247z"/>
		<path class="st9" d="M412.7,240c1.6-1.7,3.4-3.1,5.4-4.2c2-1.1,4.4-1.6,7.2-1.6c2.1,0,4.1,0.5,5.9,1.4s3.3,2.3,4.6,4.1
			c1.3,1.8,2.3,3.9,3.1,6.5c0.7,2.6,1.1,5.5,1.1,8.7c0,3-0.4,5.8-1.3,8.4s-2,4.8-3.5,6.7c-1.5,1.9-3.3,3.4-5.5,4.4
			c-2.1,1.1-4.5,1.6-7,1.6c-2.1,0-3.9-0.3-5.3-0.9s-2.7-1.4-3.9-2.4v15.5h-12.1V235h7.5c1.5,0,2.5,0.7,3,2L412.7,240z M413.5,264.4
			c0.9,1,1.9,1.7,3,2.1s2.2,0.6,3.4,0.6c1.1,0,2.1-0.2,3.1-0.7c0.9-0.4,1.7-1.2,2.4-2.1c0.7-1,1.2-2.2,1.6-3.8
			c0.4-1.6,0.6-3.5,0.6-5.7c0-2.1-0.2-3.9-0.5-5.4s-0.7-2.6-1.3-3.5c-0.6-0.9-1.2-1.5-2-1.9s-1.7-0.6-2.6-0.6c-1.8,0-3.2,0.3-4.4,1
			c-1.1,0.7-2.2,1.6-3.3,2.8L413.5,264.4L413.5,264.4z"/>
		<path class="st9" d="M459.9,223.9c0,1-0.2,1.9-0.6,2.7s-0.9,1.6-1.6,2.2c-0.7,0.6-1.5,1.1-2.4,1.5s-1.9,0.6-2.9,0.6
			s-1.9-0.2-2.8-0.6c-0.9-0.4-1.6-0.9-2.3-1.5c-0.7-0.6-1.2-1.4-1.6-2.2s-0.6-1.7-0.6-2.7s0.2-1.9,0.6-2.8s0.9-1.6,1.6-2.3
			c0.7-0.6,1.4-1.2,2.3-1.5c0.9-0.4,1.8-0.5,2.8-0.5s2,0.2,2.9,0.5c0.9,0.4,1.7,0.9,2.4,1.5c0.7,0.7,1.2,1.4,1.6,2.3
			S459.9,222.9,459.9,223.9z M458.6,235v40.4h-12.1V235H458.6z"/>
		<path class="st9" d="M478.2,239.3c0.8-0.7,1.6-1.4,2.4-2s1.7-1.2,2.7-1.6c0.9-0.4,2-0.8,3.1-1s2.3-0.4,3.6-0.4
			c2.2,0,4.2,0.4,5.9,1.2c1.7,0.8,3.1,1.8,4.3,3.2s2.1,3,2.7,4.9s0.9,3.9,0.9,6.1v25.7h-12.1v-25.7c0-2-0.5-3.5-1.4-4.6
			s-2.2-1.7-4-1.7c-1.3,0-2.6,0.3-3.7,0.8c-1.2,0.6-2.3,1.3-3.4,2.3v28.9h-12.1V235h7.5c1.5,0,2.5,0.7,3,2L478.2,239.3z"/>
		<path class="st9" d="M525.1,223.9c0,1-0.2,1.9-0.6,2.7c-0.4,0.8-0.9,1.6-1.6,2.2c-0.7,0.6-1.5,1.1-2.4,1.5s-1.9,0.6-2.9,0.6
			s-1.9-0.2-2.8-0.6c-0.9-0.4-1.6-0.9-2.3-1.5s-1.2-1.4-1.6-2.2s-0.6-1.7-0.6-2.7s0.2-1.9,0.6-2.8s0.9-1.6,1.6-2.3
			c0.7-0.6,1.4-1.2,2.3-1.5c0.9-0.4,1.8-0.5,2.8-0.5s2,0.2,2.9,0.5c0.9,0.4,1.7,0.9,2.4,1.5c0.7,0.7,1.2,1.4,1.6,2.3
			S525.1,222.9,525.1,223.9z M523.9,235v40.4h-12.1V235H523.9z"/>
		<path class="st9" d="M546,223.9c0,1-0.2,1.9-0.6,2.7c-0.4,0.8-0.9,1.6-1.6,2.2c-0.7,0.6-1.5,1.1-2.4,1.5s-1.9,0.6-2.9,0.6
			s-1.9-0.2-2.8-0.6c-0.9-0.4-1.6-0.9-2.3-1.5s-1.2-1.4-1.6-2.2c-0.4-0.8-0.6-1.7-0.6-2.7s0.2-1.9,0.6-2.8s0.9-1.6,1.6-2.3
			c0.7-0.6,1.4-1.2,2.3-1.5c0.9-0.4,1.8-0.5,2.8-0.5s2,0.2,2.9,0.5c0.9,0.4,1.7,0.9,2.4,1.5c0.7,0.7,1.2,1.4,1.6,2.3
			S546,222.9,546,223.9z M544.7,235v40.4h-12.1V235H544.7z"/>
	</g>
	<g class="st10">
		<path class="st1" d="M72.4,220.8c6,0,10.4,1.2,13.3,3.6c2.9,2.4,4.4,5.8,4.4,10.2c0,1.5-0.3,3-0.9,4.4c-0.6,1.4-1.4,2.7-2.4,3.9
			c-1,1.2-2.3,2.2-3.7,3c-1.5,0.8-3.1,1.4-4.9,1.8c2.2,0.2,4.2,0.7,6,1.4c1.8,0.7,3.3,1.6,4.5,2.8c1.2,1.1,2.2,2.5,2.8,4
			c0.6,1.5,1,3.3,1,5.2c0,2.3-0.4,4.4-1.2,6.2c-0.8,1.8-2,3.3-3.5,4.6s-3.4,2.2-5.7,2.8c-2.2,0.6-4.8,1-7.6,1H57.6v-54.8H72.4z
			 M59.7,222.5v24.5h13c2.8,0,5.1-0.4,7-1.1c1.9-0.7,3.5-1.7,4.8-2.9c1.2-1.2,2.1-2.5,2.7-4s0.8-2.9,0.8-4.3c0-3.9-1.3-6.9-3.8-9
			c-2.6-2.1-6.5-3.2-11.8-3.2H59.7z M74.5,273.9c5.1,0,9.1-1.1,11.8-3.3c2.7-2.2,4.1-5.4,4.1-9.6c0-1.9-0.4-3.6-1.1-5.1
			c-0.7-1.5-1.8-2.8-3.2-3.9c-1.4-1.1-3-1.9-5-2.5c-2-0.6-4.2-0.9-6.6-0.9H59.7v25.2H74.5z"/>
		<path class="st1" d="M102.6,242.7c1.9-2,3.9-3.5,6-4.5s4.5-1.6,7.2-1.6c2,0,3.7,0.3,5.2,1c1.5,0.6,2.7,1.6,3.7,2.7
			c1,1.2,1.7,2.6,2.2,4.3c0.5,1.7,0.7,3.6,0.7,5.8v25.3H127c-0.5,0-0.8-0.3-0.9-0.8l-0.4-5.7c-1.1,1.1-2.1,2.1-3.2,3
			c-1.1,0.9-2.2,1.6-3.4,2.2c-1.2,0.6-2.5,1.1-3.9,1.4c-1.4,0.3-2.9,0.5-4.6,0.5c-1.2,0-2.4-0.2-3.6-0.5c-1.2-0.4-2.3-0.9-3.2-1.7
			c-1-0.8-1.7-1.8-2.3-3c-0.6-1.2-0.9-2.7-0.9-4.5c0-1.7,0.5-3.2,1.5-4.6s2.5-2.6,4.5-3.6c2.1-1,4.7-1.8,7.8-2.4
			c3.1-0.6,6.9-0.9,11.2-1v-4.6c0-3.8-0.8-6.8-2.5-9c-1.7-2.1-4.1-3.2-7.4-3.2c-1.9,0-3.6,0.3-5,0.8c-1.4,0.6-2.6,1.2-3.5,1.9
			c-0.9,0.7-1.7,1.3-2.2,1.9c-0.6,0.6-1,0.8-1.3,0.8c-0.3,0-0.5-0.1-0.7-0.4L102.6,242.7z M125.6,256.4c-7.9,0.3-13.7,1.2-17.4,2.9
			c-3.8,1.7-5.6,4.1-5.6,7.1c0,1.4,0.2,2.7,0.7,3.7c0.5,1,1.1,1.9,1.9,2.6c0.8,0.7,1.7,1.2,2.7,1.5c1,0.3,2.1,0.5,3.1,0.5
			c1.7,0,3.2-0.2,4.6-0.6c1.4-0.4,2.7-0.9,3.8-1.5c1.2-0.6,2.3-1.4,3.3-2.3c1-0.9,2-1.8,2.9-2.8V256.4z"/>
		<path class="st1" d="M169.9,219.3v56.4H169c-0.5,0-0.8-0.3-0.8-0.8l-0.2-6.9c-1.7,2.5-3.8,4.5-6.1,5.9c-2.4,1.4-5,2.2-7.9,2.2
			c-4.9,0-8.6-1.6-11.3-4.8c-2.6-3.2-3.9-8.2-3.9-14.8c0-2.8,0.4-5.4,1.1-7.8c0.7-2.4,1.8-4.5,3.2-6.3c1.4-1.8,3.2-3.2,5.3-4.2
			c2.1-1,4.5-1.5,7.3-1.5c2.8,0,5.1,0.5,7.2,1.6c2,1.1,3.8,2.6,5.2,4.7v-23.6H169.9z M167.8,245c-1.6-2.5-3.4-4.2-5.3-5.2
			c-2-1-4.2-1.5-6.7-1.5c-2.5,0-4.7,0.5-6.6,1.4c-1.9,0.9-3.4,2.2-4.7,3.8s-2.2,3.6-2.8,5.8c-0.6,2.2-0.9,4.7-0.9,7.3
			c0,6.1,1.2,10.6,3.5,13.6c2.3,2.9,5.7,4.4,10.1,4.4c2.7,0,5.2-0.7,7.5-2.2c2.3-1.5,4.3-3.5,6-6.2V245z"/>
		<path class="st1" d="M182.5,242.7c1.9-2,3.9-3.5,6-4.5s4.5-1.6,7.2-1.6c2,0,3.7,0.3,5.2,1c1.5,0.6,2.7,1.6,3.7,2.7
			c1,1.2,1.7,2.6,2.2,4.3c0.5,1.7,0.7,3.6,0.7,5.8v25.3h-0.7c-0.5,0-0.8-0.3-0.9-0.8l-0.4-5.7c-1.1,1.1-2.1,2.1-3.2,3
			c-1.1,0.9-2.2,1.6-3.4,2.2c-1.2,0.6-2.5,1.1-3.9,1.4c-1.4,0.3-2.9,0.5-4.6,0.5c-1.2,0-2.4-0.2-3.6-0.5c-1.2-0.4-2.3-0.9-3.2-1.7
			c-1-0.8-1.7-1.8-2.3-3c-0.6-1.2-0.9-2.7-0.9-4.5c0-1.7,0.5-3.2,1.5-4.6s2.5-2.6,4.5-3.6c2.1-1,4.7-1.8,7.8-2.4
			c3.1-0.6,6.9-0.9,11.2-1v-4.6c0-3.8-0.8-6.8-2.5-9c-1.7-2.1-4.1-3.2-7.4-3.2c-1.9,0-3.6,0.3-5,0.8c-1.4,0.6-2.6,1.2-3.5,1.9
			c-0.9,0.7-1.7,1.3-2.2,1.9c-0.6,0.6-1,0.8-1.3,0.8c-0.3,0-0.5-0.1-0.7-0.4L182.5,242.7z M205.5,256.4c-7.9,0.3-13.7,1.2-17.4,2.9
			c-3.8,1.7-5.6,4.1-5.6,7.1c0,1.4,0.2,2.7,0.7,3.7c0.5,1,1.1,1.9,1.9,2.6c0.8,0.7,1.7,1.2,2.7,1.5c1,0.3,2.1,0.5,3.1,0.5
			c1.7,0,3.2-0.2,4.6-0.6c1.4-0.4,2.7-0.9,3.8-1.5c1.2-0.6,2.3-1.4,3.3-2.3c1-0.9,2-1.8,2.9-2.8V256.4z"/>
		<path class="st1" d="M222.9,244.7c1.8-2.5,3.9-4.4,6.4-5.9c2.5-1.5,5.2-2.2,8.1-2.2c2.1,0,4,0.3,5.6,1c1.6,0.7,2.9,1.6,4,2.8
			c1.1,1.2,1.8,2.7,2.4,4.5c0.5,1.8,0.8,3.8,0.8,6.1v24.6h-2.1v-24.6c0-2-0.2-3.8-0.7-5.4c-0.4-1.6-1.1-2.9-2-4
			c-0.9-1.1-2.1-2-3.5-2.5c-1.4-0.6-3-0.9-4.9-0.9c-2.8,0-5.4,0.7-7.8,2.2s-4.5,3.5-6.3,6.1v29.1h-2.1v-38.5h1
			c0.5,0,0.8,0.3,0.8,0.8L222.9,244.7z"/>
		<path class="st1" d="M267.6,223.3c0,0.4-0.1,0.7-0.2,1c-0.2,0.3-0.4,0.6-0.6,0.8c-0.2,0.2-0.5,0.4-0.9,0.6c-0.3,0.1-0.7,0.2-1,0.2
			c-0.7,0-1.4-0.3-1.9-0.8c-0.5-0.5-0.8-1.2-0.8-1.9c0-0.7,0.3-1.4,0.8-1.9c0.5-0.5,1.2-0.8,1.9-0.8c0.3,0,0.7,0.1,1,0.2
			c0.3,0.1,0.6,0.3,0.9,0.6c0.2,0.2,0.4,0.5,0.6,0.9C267.6,222.6,267.6,223,267.6,223.3z M266,237.2v38.5h-2v-38.5H266z"/>
		<path class="st1" d="M308.7,270.9c-0.5,0.7-1.2,1.3-2.2,1.9c-0.9,0.6-2,1.2-3.2,1.7c-1.2,0.5-2.5,0.9-3.9,1.2
			c-1.4,0.3-2.9,0.4-4.3,0.4c-2.6,0-5-0.5-7.1-1.4c-2.1-0.9-3.9-2.3-5.4-4c-1.5-1.7-2.6-3.9-3.5-6.4c-0.8-2.5-1.2-5.4-1.2-8.7
			c0-2.8,0.4-5.4,1.2-7.7c0.8-2.3,1.9-4.3,3.3-6c1.5-1.7,3.2-3,5.3-3.9c2.1-0.9,4.5-1.4,7.2-1.4c2.1,0,4,0.4,5.8,1.1
			c1.8,0.7,3.4,1.8,4.7,3.2c1.4,1.4,2.4,3.2,3.2,5.2c0.8,2.1,1.2,4.5,1.2,7.1c0,0.5-0.2,0.8-0.7,0.8h-29.1c0,0.3,0,0.5,0,0.8
			s0,0.5,0,0.8c0,3.1,0.4,5.8,1.1,8.1c0.7,2.3,1.8,4.3,3.1,5.9s2.9,2.8,4.8,3.6c1.9,0.8,4,1.2,6.3,1.2c2.1,0,3.8-0.2,5.3-0.7
			c1.5-0.5,2.8-1,3.8-1.5c1-0.5,1.8-1,2.4-1.5c0.6-0.5,0.9-0.7,1.1-0.7c0.2,0,0.4,0.1,0.5,0.2L308.7,270.9z M307.8,252.7
			c0-2.3-0.3-4.4-1-6.2c-0.7-1.8-1.6-3.3-2.7-4.6c-1.2-1.2-2.5-2.2-4.1-2.8c-1.6-0.6-3.3-1-5.1-1c-2.2,0-4.1,0.3-5.9,1
			c-1.7,0.7-3.2,1.7-4.5,2.9c-1.2,1.3-2.3,2.8-3,4.6c-0.8,1.8-1.3,3.8-1.5,6H307.8z"/>
	</g>
	<g class="st10">
		<path class="st0" d="M397.5,247.2c0,4.1-0.7,7.9-2.1,11.5c-1.4,3.5-3.4,6.6-6,9.2c-2.6,2.6-5.7,4.7-9.3,6.1
			c-3.6,1.5-7.7,2.2-12.1,2.2c-4.4,0-8.5-0.7-12.1-2.2c-3.6-1.5-6.8-3.5-9.3-6.1c-2.6-2.6-4.6-5.7-6-9.2c-1.4-3.5-2.1-7.4-2.1-11.5
			s0.7-7.9,2.1-11.5c1.4-3.5,3.4-6.6,6-9.2c2.6-2.6,5.7-4.6,9.3-6.1c3.6-1.5,7.7-2.2,12.1-2.2c4.4,0,8.4,0.7,12.1,2.2
			s6.7,3.5,9.3,6.1c2.6,2.6,4.6,5.7,6,9.2C396.8,239.3,397.5,243.2,397.5,247.2z M384,247.2c0-2.8-0.4-5.3-1.1-7.6
			c-0.7-2.2-1.8-4.2-3.1-5.7c-1.4-1.6-3-2.8-5-3.6c-2-0.8-4.2-1.2-6.7-1.2c-2.5,0-4.8,0.4-6.8,1.2c-2,0.8-3.7,2-5,3.6
			c-1.4,1.6-2.4,3.5-3.1,5.7c-0.7,2.2-1.1,4.8-1.1,7.6c0,2.8,0.4,5.4,1.1,7.6c0.7,2.2,1.8,4.2,3.1,5.7c1.4,1.6,3,2.7,5,3.6
			c2,0.8,4.3,1.2,6.8,1.2c2.5,0,4.8-0.4,6.7-1.2c2-0.8,3.6-2,5-3.6c1.4-1.6,2.4-3.5,3.1-5.7C383.6,252.6,384,250.1,384,247.2z"/>
		<path class="st0" d="M414.6,240.2c1.6-1.7,3.4-3.1,5.4-4.2c2-1.1,4.4-1.6,7.2-1.6c2.1,0,4.1,0.5,5.8,1.4c1.8,0.9,3.3,2.3,4.6,4.1
			c1.3,1.8,2.3,3.9,3.1,6.5c0.7,2.6,1.1,5.5,1.1,8.7c0,3-0.4,5.8-1.3,8.4c-0.8,2.6-2,4.8-3.5,6.7c-1.5,1.9-3.3,3.4-5.5,4.4
			c-2.1,1.1-4.5,1.6-7,1.6c-2.1,0-3.9-0.3-5.3-0.9c-1.4-0.6-2.7-1.4-3.9-2.4v15.5h-12.1v-53.3h7.5c1.5,0,2.5,0.7,3,2L414.6,240.2z
			 M415.3,264.7c0.9,1,1.9,1.7,3,2.1s2.2,0.6,3.4,0.6c1.1,0,2.1-0.2,3.1-0.7c0.9-0.4,1.7-1.2,2.4-2.1c0.7-1,1.2-2.2,1.6-3.8
			c0.4-1.6,0.6-3.5,0.6-5.7c0-2.1-0.2-3.9-0.5-5.4c-0.3-1.5-0.7-2.6-1.3-3.5c-0.6-0.9-1.2-1.5-2-1.9c-0.8-0.4-1.7-0.6-2.6-0.6
			c-1.8,0-3.2,0.3-4.4,1c-1.1,0.7-2.2,1.6-3.3,2.8V264.7z"/>
		<path class="st0" d="M461.7,224.1c0,1-0.2,1.9-0.6,2.7c-0.4,0.8-0.9,1.6-1.6,2.2c-0.7,0.6-1.5,1.1-2.4,1.5
			c-0.9,0.4-1.9,0.6-2.9,0.6c-1,0-1.9-0.2-2.8-0.6c-0.9-0.4-1.6-0.9-2.3-1.5c-0.7-0.6-1.2-1.4-1.6-2.2c-0.4-0.8-0.6-1.7-0.6-2.7
			c0-1,0.2-1.9,0.6-2.8s0.9-1.6,1.6-2.3c0.7-0.6,1.4-1.2,2.3-1.5c0.9-0.4,1.8-0.5,2.8-0.5c1,0,2,0.2,2.9,0.5
			c0.9,0.4,1.7,0.9,2.4,1.5c0.7,0.7,1.2,1.4,1.6,2.3C461.5,222.2,461.7,223.2,461.7,224.1z M460.4,235.2v40.4h-12.1v-40.4H460.4z"/>
		<path class="st0" d="M480.1,239.6c0.8-0.7,1.6-1.4,2.4-2c0.8-0.6,1.7-1.2,2.7-1.6s2-0.8,3.1-1s2.3-0.4,3.6-0.4
			c2.2,0,4.2,0.4,5.9,1.2c1.7,0.8,3.1,1.8,4.3,3.2s2.1,3,2.7,4.9c0.6,1.9,0.9,3.9,0.9,6.1v25.7h-12.1V250c0-2-0.5-3.5-1.4-4.6
			s-2.2-1.7-4-1.7c-1.3,0-2.6,0.3-3.7,0.8c-1.2,0.6-2.3,1.3-3.4,2.3v28.9h-12.1v-40.4h7.5c1.5,0,2.5,0.7,3,2L480.1,239.6z"/>
		<path class="st0" d="M527,224.1c0,1-0.2,1.9-0.6,2.7c-0.4,0.8-0.9,1.6-1.6,2.2c-0.7,0.6-1.5,1.1-2.4,1.5c-0.9,0.4-1.9,0.6-2.9,0.6
			c-1,0-1.9-0.2-2.8-0.6c-0.9-0.4-1.6-0.9-2.3-1.5c-0.7-0.6-1.2-1.4-1.6-2.2c-0.4-0.8-0.6-1.7-0.6-2.7c0-1,0.2-1.9,0.6-2.8
			s0.9-1.6,1.6-2.3c0.7-0.6,1.4-1.2,2.3-1.5c0.9-0.4,1.8-0.5,2.8-0.5c1,0,2,0.2,2.9,0.5c0.9,0.4,1.7,0.9,2.4,1.5
			c0.7,0.7,1.2,1.4,1.6,2.3C526.8,222.2,527,223.2,527,224.1z M525.7,235.2v40.4h-12.1v-40.4H525.7z"/>
		<path class="st0" d="M547.8,224.1c0,1-0.2,1.9-0.6,2.7c-0.4,0.8-0.9,1.6-1.6,2.2c-0.7,0.6-1.5,1.1-2.4,1.5
			c-0.9,0.4-1.9,0.6-2.9,0.6c-1,0-1.9-0.2-2.8-0.6c-0.9-0.4-1.6-0.9-2.3-1.5c-0.7-0.6-1.2-1.4-1.6-2.2c-0.4-0.8-0.6-1.7-0.6-2.7
			c0-1,0.2-1.9,0.6-2.8c0.4-0.9,0.9-1.6,1.6-2.3c0.7-0.6,1.4-1.2,2.3-1.5c0.9-0.4,1.8-0.5,2.8-0.5c1,0,2,0.2,2.9,0.5
			c0.9,0.4,1.7,0.9,2.4,1.5c0.7,0.7,1.2,1.4,1.6,2.3C547.6,222.2,547.8,223.2,547.8,224.1z M546.6,235.2v40.4h-12.1v-40.4H546.6z"/>
	</g>
</g>
<g id="Warstwa_2">
</g>
</svg>
