<?xml version="1.0" encoding="utf-8"?>
<!-- Generator: Adobe Illustrator 19.2.0, SVG Export Plug-In . SVG Version: 6.00 Build 0)  -->
<svg version="1.1" id="Warstwa_1" xmlns="http://www.w3.org/2000/svg" xmlns:xlink="http://www.w3.org/1999/xlink" x="0px" y="0px"
	 viewBox="0 0 250 250" style="enable-background:new 0 0 250 250;" xml:space="preserve">
<style type="text/css">
	.st0{fill:#3F3F3F;}
	.st1{fill:#3C3C3C;}
	.st2{fill:#424242;}
	.st3{fill:#3E3E3E;}
	.st4{fill:#404040;}
	.st5{fill:#036CB3;}
	.st6{fill:#71C8FE;}
	.st7{fill:#249DEB;}
	.st8{fill:#034F92;}
	.st9{fill:#1781C6;}
	.st10{fill:#043867;}
	.st11{fill:#434343;}
	.st12{fill:#289FEB;}
	.st13{fill:#279FEB;}
	.st14{fill:#E1E7EB;}
	.st15{fill:#E1E7EC;}
	.st16{fill:#DAE4EA;}
	.st17{fill:#E0E7ED;}
	.st18{fill:#BBD7EA;}
	.st19{fill:#F8F8F8;}
	.st20{fill:#F4F4F4;}
	.st21{fill:#DFE6EB;}
	.st22{fill:#DCE5EA;}
	.st23{fill:#F2F2F2;}
</style>
<g>
	<path class="st0" d="M13,185.4c0.9-1.3,1.8-2.6,2.7-3.9c0.4-0.7,0.8-1.2,1.7-1c0.9,0.2,0.4,1,0.5,1.5c0.1,0.7,0,1.4,0,2.1
		c0,0.2,0,0.4,0,0.6c-0.3,0.9,1.4,0.6,1,1.6c-0.2,0.6-1.3,0.6-1,1.5c0.2,0.5-0.3,0.6-0.7,0.5c-0.4,0-1,0.2-0.9-0.5
		c0.1-1.4-0.8-1.1-1.6-1.1c-0.6,0-1.1,0-1.7,0C13,186.4,13,185.9,13,185.4z"/>
	<path class="st1" d="M203.6,34c1.8,1.6,1.8,2.9,0.1,4.6c-0.6,0.6-1.2,1.1-1.8,1.6c0.1,0.1,0.1,0.2,0.2,0.4c0.7,0,1.5,0,2.2,0
		c0.6,0,0.8,0.2,0.8,0.8c0,0.6-0.4,0.6-0.8,0.6c-1.2,0-2.5,0-3.7,0c-0.4,0-0.9,0.3-1-0.4c-0.1-0.4,0-0.8,0.3-1.1
		c0.9-0.9,1.7-1.7,2.6-2.7c0.5-0.6,1.1-1.3,0.6-2c-0.6-0.8-1.4-0.4-2,0c-0.6,0.4-0.8,0-1.1-0.3c-0.4-0.5,0.1-0.7,0.4-0.9
		c0.2-0.2,0.7-0.2,0.8-0.6C202,34,202.8,34,203.6,34z"/>
	<path class="st2" d="M197.8,34c0,2.3,0,4.5-0.1,6.8c0,0.5,0.3,1.3-0.8,1.3c-1.2,0-0.9-0.7-0.9-1.4c0-1.5,0-2.9,0-4.4
		c-0.5-0.1-0.6,0.1-0.8,0.3c-0.4,0.3-0.7,0.6-1.1,0c-0.4-0.6,0-0.8,0.4-1.1c0.6-0.5,1.3-0.8,1.7-1.5C196.7,34,197.3,34,197.8,34z"/>
	<path class="st3" d="M208.3,34c1.1,1,1.3,2.3,1,3.6c-0.2,0.9-0.7,1.3-1.6,1.4c-0.9,0.1-1.6-0.3-1.8-1.3c-0.4-1.4-0.3-2.7,0.9-3.7
		C207.2,34,207.8,34,208.3,34z"/>
	<path class="st4" d="M212.9,34c-1,2.9-2.7,5.3-4.2,7.9c-0.1,0.3-0.7,0.2-1.1,0c1.2-2.8,3.1-5.1,4.1-7.9C212.1,34,212.5,34,212.9,34
		z"/>
	<path class="st5" d="M196.5,99.4c-0.3,1-0.8,1.8-0.1,2.7c0.3,0.4-0.1,0.9-0.4,1.2c-0.7,0.8-0.6,1.5,0.2,2.1
		c0.8,0.6,1.1,1.4,1.2,2.4c0.5,2.8,1.9,4,4.7,4.3c1.3,0.1,2.6,0.3,3.8,0.3c0.7,0,3.3,1.8,3.3,2.4c0,1.1-0.5,1.9-1.3,2.7
		c-0.9,0.8-1.7,1.6-2.1,2.8c-0.2,0.9-0.9,0.9-1.6,0.6c-0.4-0.2-0.8-0.4-1.2-0.7c-1-0.9-1.7-0.6-2.3,0.4c-0.5,0.9-1.1,1.2-2.3,0.8
		c-1-0.4-2.2-0.5-2.8,0.8c-0.1,0.2-0.3,0.4-0.5,0.3c-2.3-0.8-4.7,0.6-6.9-0.4c-0.4-0.2-0.6,0-0.8,0.2c-0.2,0.2-0.4,0.6-0.7,0.6
		c-2.4,0.3-2.2,2-2.4,3.8c-0.1,1.2-0.5,2,0.8,2.7c0.5,0.3-0.1,0.7-0.4,0.9c-0.9,0.5-1,1.1-0.6,2c0.5,1,0.1,1.4-0.9,1.4
		c-0.9,0-1.9,0-2.8,0.1c-0.9,0.1-1.4,0.6-1.5,1.5c-0.1,0.8,0.4,1.2,1,1.6c0.6,0.4,1.2,0.4,1.9,0.5c1,0.1,1.9,0.4,2.2,1.6
		c0.2,1.1-0.4,1.6-1.3,2.1c-1.1,0.6-1.3,1.1-0.2,1.9c0.8,0.6,0.9,3.1,0.1,4.5c-0.4,0.8-0.6,1.5-0.2,2.4c0.5,0.9-0.2,1.9-0.7,2.7
		c-0.2,0.4-0.7,0.4-0.9,0.1c-1-1.2-1.9-0.5-2.9-0.1c-0.4,0.2-0.8,0.4-1.2,0.6c-1,0.6-1.9,0.5-2.7-0.5c-0.8-1.1-1.8-1.7-3.2-1.3
		c-0.7,0.2-1.3-0.1-1.5-1c-0.1-0.6-0.2-1.2-0.4-1.8c-0.3-0.9-0.8-1-1.8-0.5c-1.7,1-3.2,1.9-5.5,1.1c-2.9-1-4.5-3.4-6.7-5.1
		c-1-0.7-0.8-1.7,0.2-2.4c0.6-0.4,1.2-0.8,1.7-1.4c0.8-0.9,0.5-1.6-0.6-1.9c-1.1-0.3-2.7-3.2-2.3-4.2c0.2-0.6,0.7-0.4,1-0.3
		c0.9,0.1,1.7,0.3,2.6,0.4c0.8,0.1,1.5-0.2,1.8-0.9c0.4-0.7-0.1-1.4-0.6-1.7c-1.1-0.8-1.3-1.7-0.6-2.9c0.2-0.3,0.2-0.7,0-1
		c-0.7-1.2-3.8-2.6-5.2-2.3c-0.6,0.1-1.7,0.4-1.9-0.1c-0.3-1.1-0.6-2.5-0.2-3.5c0.6-1.5,0.7-1.7-0.7-2.4c-0.6-0.3-1.1-0.4-1.7-0.7
		c-0.7-0.3-1.2-0.8-1-1.7c0.3-0.9-0.3-1.5-1-1.9c-0.7-0.4-1.4-0.7-2-1.1c-0.9-0.5-1.7-0.7-2.5,0.1c-0.6,0.6-1.4,0.9-2.2,0.2
		c-0.1-0.1-0.5-0.2-0.6-0.1c-1.3,0.9-2.1-0.2-3.1-0.7c-1-0.5-1.8-1.2-3.1-1c-0.9,0.2-1.8-0.5-2.2-1.3c-0.4-0.9,0.2-1.6,0.8-2.1
		c0.7-0.7,1.3-1.3,1.1-2.4c0-0.2,0.1-0.6,0.2-0.7c1.1-0.7,1.2-1.5,0.5-2.6c-0.5-0.8,0.3-1.3,1-1.6c1.7-0.7,1.9-1.4,0.7-2.8
		c-0.8-0.9-0.9-1.5-0.2-2.5c0.5-0.8,0-2.2,1.5-2.4c0.4-0.1,0.8-0.2,1.3-0.1c1.2,0.4,2-0.3,1.7-1.6c-0.2-0.6-0.5-1.2-0.8-1.8
		c-0.7-1.2-0.2-1.9,0.9-2.2c1.2-0.3,2.4-0.5,3.1-1.7c0.4-0.7,0.9-0.1,1.2,0.2c0.6,0.7,1.3,0.7,2.2,0.6c1.3-0.1,2.7-0.1,3.9,0.3
		c1.7,0.5,2.9,0,3.8-1.5c0.6-1,1.2-1.4,2.3-0.7c1,0.6,1.8,0.2,2.4-0.6c1.1-1.5,2.6-2.2,4.4-1.8c1,0.2,1.6-0.3,2-1
		c0.5-0.8,1.2-1.1,2-0.5c0.8,0.6,1.4,0.3,2-0.4c1-1.3,2.2-2,3.9-1.8c1.2,0.1,2.2-0.8,3.2-1.4c1.2-0.7,1.9-0.6,2.5,0.7
		c0.7,1.4,1.2,2.5,0.7,4.2c-0.8,2.4,0.9,5.4,3.2,6.4c0.3,0.1,0.7,0.2,0.8,0.5c0.7,2,2.7,3.2,3.5,5.2c0.8,2,1.8,2.6,3.7,1.7
		c0.4-0.2,0.7-0.4,1.1-0.5c0.8-0.2,1.1,0.1,0.9,0.9c-0.4,1.9-0.1,2.2,1.9,2.1C195.3,99.4,195.8,99.4,196.5,99.4z"/>
	<path class="st5" d="M89.3,76c1.6,1.2,1.6,1.2,0.2,2.7c-1.7,1.8-1.6,2.3,0.4,3.7c0.3,0.2,0.7,0.5,1,0.7c0.7,0.5,0.9,1.1,0.2,1.6
		c-1,0.7-1,1.7-0.9,2.7c0.1,1.2-0.1,2.5-0.5,3.6c-0.5,1.4,0.2,2.3,1.4,2.8c0.6,0.3,1.2,0.4,1.7,0.7c0.9,0.4,1.2,1.2,1.1,2.2
		c-0.1,0.9-0.3,1.6-1.3,1.8c-1.4,0.2-1.4,0.9-0.6,1.9c0.4,0.5,0.8,1,1.2,1.6c0.5,0.6,1,1.1,1.9,0.5c0.7-0.5,1.1-0.3,1.4,0.6
		c0.5,1.8,0.9,1.9,2.4,0.9c0.6-0.4,3.1,0.2,3.3,0.9c0.4,1.3,1.2,2,2.7,2.1c0.7,0.1,1.4,0.8,2.1,1.3c1.2,0.8,2.4,1.1,3.6-0.2
		c0.6-0.6,1.2-0.9,1.4,0.3c0.3,1.1,1,1.2,1.8,0.7c0.9-0.5,1.6-0.3,2.2,0.4c1.1,1.2,2.2,2.3,3.3,3.5c0.6,0.7,1.2,1,2.1,0.4
		c2.3-1.5,2.6-1.4,4,0.8c1.2,1.7,1.1,1.9-0.9,2.5c-2.1,0.7-2.1,0.7-1.6,2.9c0.2,0.8-1.2,1.9-2.2,1.6c-0.9-0.2-1.5-0.4-2.1,0.5
		c-0.5,0.9-0.9,2-0.1,2.9c0.7,0.9,0.9,1.7,0.3,2.8c-0.7,1.1-1.6,0.9-2.6,0.7c-1-0.2-1.8-0.1-2.4,0.8c-1.9,2.8-3.5,5.8-2.5,9.4
		c0.2,0.8,0.2,1.5-0.3,2.2c-0.2,0.3-0.4,0.7-0.7,0.5c-1.9-1.3-2.6,1.1-4,1.4c-1.2,0.2-1.3,2.7-0.4,3.9c1.5,1.9,1.3,2.6-0.8,3.7
		c-1.1,0.5-2.2,1-3.4,0.9c-0.6,0-1.1-0.1-0.7-0.9c0.3-0.8-0.2-1-0.7-1.5c-0.9-0.8-2-1.3-1.4-3.1c0.8-2.3-0.6-3.8-3-3.9
		c-1.5-0.1-1.2-0.9-1.1-1.9c0.1-0.9,1.1-1.5,0.5-2.6c-0.9-1.7-4.7-3.5-6.6-3c-0.5,0.1-0.9,0.4-1,0.8c-0.5,1.5-1.7,1.8-3.1,2
		c-1.8,0.3-3.6,0.5-5-0.8c-1-1-1.7-2.3-3.3-2.5c-0.2,0-0.3-0.8-0.5-1.2c-0.8-2-1.4-2.5-3.5-2.5c-0.8,0-1.2-0.2-1.5-0.9
		c-0.3-0.7-0.6-1.4-1.2-2c-0.8-0.7-1.6-1.3-2.7-0.6c-0.8,0.5-1.3,0.4-1.4-0.7c-0.2-1.1,0-2.7-2.1-1.9c-0.6,0.2-1.3-0.4-0.9-1.1
		c0.8-1.4-0.1-1.7-1.2-1.9c-1-0.1-1.8-0.3-0.9-1.6c0.1-0.2,0.2-0.6,0.1-0.7c-1.1-1.4-0.3-2.8-0.1-4.3c0.2-1.1,0.6-2.3-0.3-3.4
		c-0.1-0.1-0.2-0.3-0.1-0.4c1.1-2-0.5-3.5-1.1-5.1c-0.7-2.1-0.6-2.8,1.3-3.7c1.4-0.7,1.8-1.5,0.9-2.8c-0.4-0.7-0.2-1.2,0.2-1.7
		c1-1.3,1.1-2.6,0.5-4c-0.2-0.4-0.4-0.9,0-1.3c0.4-0.4,0.9,0,1.3,0.2c0.6,0.3,1.2,0.4,1.8,0.1c1.2-0.6,2.3-1.2,3.8-1
		c0.7,0.1,1.3-0.5,1.2-1.4c-0.1-1.2,1.1-2.7,2.3-3c2.1-0.6,3.4-2.1,4.5-3.9c0.5-0.7,0-1.2-0.4-1.6c-0.6-0.6-1.5-0.9-2.3-1.3
		c-0.7-0.3-1.3-0.6-1.7-1.2c-0.3-0.4-0.5-0.8-0.3-1.3c0.2-0.5,0.7-0.3,1.1-0.3c2.5,0.3,4.1-0.8,5-3.1c0.9-2.2,1.9-2.3,3.4-0.6
		c0.2,0.2,0.5,0.3,0.7,0.6c0.7,1.3,1.5,1.6,3,0.9C86.8,74.4,88.2,74.9,89.3,76z"/>
	<path class="st6" d="M130.1,56.2c0.1-0.1,0.2-0.3,0.3-0.3c1.8-0.9,1.7-1.9,0.1-2.9c-0.1-0.1-0.2-0.4-0.2-0.5
		c0.1-0.3,0.4-0.3,0.6-0.2c0.4,0,0.7,0.2,1,0.2c0.9,0.2,1.8,0.2,2.5-0.7c0.6-0.8,1.6-1.4,2.7-1.4c1.4-0.1,2.3-0.7,2.9-1.9
		c0.7-1.5,1.7-1.9,3.4-1.6c3.6,0.5,7,1.6,10.6,2.1c3.7,0.4,7.3,0.8,11,1.2c3.6,0.4,7.2,0.6,10.7,1c3.1,0.4,6.2,0.1,9.2-0.2
		c2.4-0.2,4.8-0.7,7.2-0.5c2.8,0.2,5.6-0.4,8.4-0.8c0.8-0.1,1.6-0.2,2.5,0c0.4,0.1,1,0.1,1,0.7c0,0.6-0.3,0.9-0.8,1
		c-0.8,0.3-1.6,0.5-2.3,0.8c-0.7,0.3-1.5,0.4-2.2,0.8c-1.7,0.9-1.8,2.6,0,3.6c1,0.6,2,0.9,1.2,2.4c-0.2,0.3,0.1,0.7,0.3,1
		c0.3,0.5,0.7,0.9,1,1.4c1,1.6,2.9,3,1.3,5.3c-1.2,1.7-2.3,3.3-4.5,3.6c-1.9,0.3-3.4,1.2-4.7,2.7c-0.8,1-1.8,2-3.3,2
		c-0.4,0-0.9,0.3-1.1,0.7c-0.2,0.4-0.6,0.7-1.1,0.7c-1.1,0-2.2-0.3-2.9,1.1c-0.3,0.5-1,0.2-1.4-0.1c-0.9-0.8-1.9-0.6-3-0.5
		c-2.3,0.2-4.5,0.5-6.4,1.9c-0.2,0.1-0.5,0.1-0.7,0.1c-1.7-0.3-2.9,0.4-3.9,1.7c-0.6,0.7-1.2,1.1-2.1,0.4c-0.9-0.6-1.7-0.3-2.2,0.6
		c-0.5,0.9-1.3,1.1-2.2,1c-1.6-0.2-2.8,0.3-3.7,1.6c-0.7,1.1-1.7,1.6-3,0.6c-0.8-0.7-1.6-0.1-2,0.5c-1.6,2.5-3.9,1.9-6.2,1.6
		c-0.2,0-0.6-0.2-0.7-0.2c-1.3,0.7-2.2,0.4-3.1-0.8c-0.6-0.9-1.3-0.1-1.8,0.4c-0.7,0.9-1.1,0.9-1.6-0.2c-0.4-1-0.9-1.8-1-3
		c0-0.9-0.6-1.8-1.8-1.7c-1.6,0.2-2.8-0.4-4-1.3c-0.8-0.6-1.7-1.2-2.8-0.7c-0.6,0.3-0.8-0.2-0.9-0.8c-0.1-0.7-0.2-1.4-0.3-2.1
		c-0.2-0.8-0.2-1.7-1.2-2.1c-0.6-0.2-0.7-0.8-0.3-1.4c0.4-1,1-1.9,1.6-2.8c0.4-0.6,0.7-1.2,0.9-1.9c0.3-1.4,0.8-1.7,2.1-1.2
		c1.1,0.4,1.8,0,2.3-0.9c0.5-0.8,1.5-1.7,1.3-2.5c-0.3-1-1.6-0.2-2.4-0.5c-0.3-0.1-0.7-0.2-1-0.4c-0.1-0.1-0.2-0.2-0.3-0.3
		c-0.2-0.7-0.5-1.3-1.2-1.7c-1.4-0.7-2-2-2.2-3.5C129.6,56.8,129.7,56.4,130.1,56.2z"/>
	<path class="st6" d="M184.8,157.1c0.2-1.2-0.2-2.8-1-4.2c-0.4-0.7-0.5-1.3,0-2c0.1-0.1,0.2-0.3,0.2-0.4c-0.9-1.9,0.5-3.6,0.5-5.5
		c0-0.2,0.1-0.4,0-0.6c-0.7-1.6-0.3-2.8,0.7-4.2c0.9-1.3-0.6-3.1-2.4-3.3c-0.7-0.1-1.3-0.2-1.9-0.5c-0.3-0.2-0.6-0.4-0.6-0.8
		c0-0.4,0.4-0.5,0.8-0.6c0.8-0.4,1.7-0.2,2.6-0.2c1.7-0.1,2.3-0.9,1.8-2.5c-0.2-0.5-0.1-0.8,0.3-1.2c1.1-0.8,1.3-1.5,0.2-2.6
		c-1.3-1.3-0.4-4.2,1.4-4.6c2.4-0.5,4.7-1,7.1-0.3c0.8,0.2,1.5-0.1,2.1-0.7c0.6-0.8,1.4-1,2.3-0.4c1,0.6,1.8,0.3,2.2-0.8
		c0.5-1.1,1.2-1.1,2.1-0.5c0.5,0.3,1,0.5,1.5,0.7c1,0.4,1.6,0.2,1.9-0.8c0.3-0.8,0.7-1.5,1.4-2c0.9-0.6,1.5-1.4,1.8-2.4
		c0.2-0.7,0.6-1.1,1.3-1.4c0.8-0.3,1.4-0.8,1.6,0.6c0.1,0.8,0.8,0.9,1.5,1c3.3,0.4,6,2,7.9,4.8c0.9,1.3,1.2,2.7,0,4.1
		c-0.9,1-1.1,2.2-0.7,3.5c0.2,0.6,0,1-0.4,1.4c-0.9,0.8-1.1,1.7-1.1,2.9c0,2.6,0.7,4.8,2.4,6.7c0.9,1,1,2.2-0.1,3.4
		c-1.2,1.4-1.1,1.6,0.6,2.3c0.2,0.1,0.5,0.1,0.5,0.2c0.6,2.1,3.1,3.2,3.3,5.5c0.1,0.9,0.3,1.7,0.9,2.3c0.8,0.8,1.5,1.6,1.4,2.9
		c0,1,1.1,0.7,1.7,1c0.6,0.3,1.3,0.2,1.4,1.1c0,0.9,0,1.6-1.2,1.4c-0.4-0.1-0.7,0-1.1,0c-1.3,0-1.3,0.6-0.8,1.5
		c0.1,0.2,0.3,0.4,0.4,0.6c2.1,2.5,2.4,6.4,0.7,9.2c-0.7,1.1-1.7,1.7-2.9,1.7c-0.8,0-1.6,0.2-2.4,0.3c-1.1,0.1-1.7,0.5-2,1.6
		c-0.1,0.3-0.3,0.7-0.5,1c-0.6,0.8-1.4,2-2.2,1.7c-1.1-0.4-2.3-1.1-2.7-2.5c-0.7-2.1-1.2-2.4-3.4-1.8c-0.1,0-0.2,0.1-0.3,0.1
		c-2.3-1.2-3,1-4.2,2c-0.9,0.7-1.5,1.2-2.8,0.8c-1.3-0.4-2.8,0-4.3,0c-0.5,0-1.1,0.1-0.9-0.6c0.3-1.4-0.6-1.2-1.5-1.2
		c-0.7,0-1.3,0.1-2-0.2c-0.5-0.2-1-0.4-0.9-1.1c0-0.6,0.3-1,0.9-1.2c2.2-0.8,2.3-1.3,0.7-3.1c-1.5-1.7-3.5-2.5-5.7-3.1
		c-1.6-0.4-1.9-0.9-1-2.4c0.7-1.1,0.4-1.8-0.7-2.4c-1.3-0.6-2.5-1.4-3.9,0c-1,1-2.4,0.2-2.7-1.3
		C184.7,159.2,184.8,158.3,184.8,157.1z"/>
	<path class="st7" d="M80.9,65.2c-1.6,0.4-0.9,1.1-0.1,1.6c1,0.6,1.1,1,0.1,1.7c-0.5,0.4-0.7,1-0.5,1.6c0.3,0.9-0.1,1.6-1,1.7
		c-1.3,0.2-1.9,1-2.1,2.1c-0.4,1.7-1.5,2.4-3.2,2.4c-1.1,0-2.4-0.4-2.7,1.2c-0.3,1.3,0.4,2.3,2,3c0.2,0.1,0.5,0.2,0.7,0.3
		c0.7,0.4,1.9,0.4,1.9,1.5c0,1-0.8,1.6-1.6,2.1c-1.2,0.8-2.6,1.5-3.8,2.3c-0.9,0.6-1.9,1.3-1.5,2.7c0.1,0.4-0.1,0.7-0.5,0.8
		c-1.5,0.3-2.9,0.5-4.4,0.7C63.4,91.3,63,90.9,63,90c0-1.5-1.2-1.8-2.2-2.2c-1.1-0.4-1.7,0.5-2,1.3c-0.8,1.7-2.2,2.6-3.9,3.1
		c-0.5,0.2-0.8,0-1.1-0.2c-1.2-0.9-2.1-0.5-3,0.4c-0.7,0.8-1.5,1.4-2.7,1.2c-0.6-0.1-0.9,0.3-1.1,0.9c-0.4,1.4-2.5,2.6-3.9,2.3
		c-0.7-0.2-1.4-0.2-2.1-0.5c-1.4-0.5-2.4-0.5-2.2,1.4c0,0.1,0,0.3-0.1,0.3c-1.6,0.9-1.7,2.8-2.5,4.2c-0.2,0.3-0.5,0.8-0.8,0.7
		c-1.4-0.9-1.9,0.2-2.6,1.1c-0.2,0.2-0.5,0.2-0.7,0c-1.1-1.2-2.9-1.5-3.7-3.1c-0.8-1.6-2.1-2.5-3.9-2.6c-0.8,0-1.2-0.4-1.1-1.3
		c0-0.1,0-0.1,0-0.2c-0.3-1.9,0-3.6,2.2-4.4c0.9-0.3,1.5-1.2,2.3-1.8c1-0.8,1.4-1.8,0.7-3c-0.5-1,0-1.6,0.7-2.1
		c1-0.7,1.3-1.6,0.6-2.7c-2.1-3.4-1.8-7.4-3-11.1c-0.2-0.6-0.2-1.4,0.4-1.8c0.7-0.4,1,0.3,1.4,0.6c0.4,0.3,0.8,0.7,1.3,0.7
		c1-0.1,1.4,0.7,1.9,1.3c0.3,0.3,0.5,0.9,1.1,0.5c0.4-0.3,0.4-1,0.1-1.3c-1.6-1.5-1.9-2.6,0.2-4c0.5-0.4-0.4-1.5-1.2-1.7
		c-1-0.3-2-0.4-2.9-0.9c-0.6-0.4-0.9,0.1-1.1,0.6c-0.7,1.5-1.3,1.6-2.4,0.3c-0.3-0.3-0.5-0.7-0.7-1c-0.2-0.6-0.6-1.3-0.1-1.9
		c0.5-0.6,1.2-0.3,1.8,0c1.7,0.7,3.1,0.3,4.4-0.8c0.8-0.6,1.6-1.1,2.6-1.3c0.4-0.1,0.8-0.2,1.2-0.4c4.9-2.1,10-3.5,15.1-4.9
		c3.9-1.1,7.8-2.1,11.7-2.8c4.4-0.8,7-3.6,9.4-6.8c0.7-0.9,1.3-1.9,2.3-2.4c0.9-0.4,1.8-0.8,2.8-0.7c1.2,0.1,1.1,1.6,2,1.9
		c0.1,0,0.1,0.1,0.2,0.1c1,1.3,1.8,2.7,1,4.4c-0.3,0.5,0.1,1,0.4,1.4c0.8,1.4,0.6,1.9-0.8,2.5c-1.8,0.8-1.8,0.8-0.7,2.4
		c0.7,1,1.1,1.9,0.5,3.2c-0.5,1.2,0.1,2,1,2.8c0.9,0.7,2.2,0.9,2.9,1.9C82.9,65.2,82.7,65.3,80.9,65.2z"/>
	<path class="st6" d="M206.1,48.2c1.2,0.1,2.1,0.6,2.6,1.8c0.2,0.4,0.3,1.2,0.7,1.1c2-0.5,3.1,1.5,4.9,1.8c3,0.5,5.4,4.1,4.9,7.1
		c-0.4,2-0.3,3.9,0.5,5.7c1.2,2.6,1.6,5.4,1.9,8.2c0,0.3,0,0.6,0.2,0.9c2.1,3.6,2.8,7.8,5.1,11.3c0.5,0.8,0.8,1.6,0.4,2.6
		c-0.3,0.7-0.3,1.6,0.3,2.2c0.6,0.7,0.7,1.5,0.5,2.3c-0.5,1.9-0.1,3.7,0.4,5.4c0.4,1.4,0,2.5-1,3.5c-1.8,1.7-3.6,3.2-6.2,3.3
		c-2.2,0.1-3.7,1.7-5,3.3c-1,1.2-1.9,2.4-2.5,3.9c-0.7,1.7-2.7,2.5-3.8,1.2c-2.1-2.4-4.8-2.3-7.4-2.6c-2-0.2-3.2-1-3.8-2.9
		c-0.3-1.1-0.8-2.2-1.7-3.1c-0.6-0.6-0.3-1.1,0.1-1.6c0.5-0.7,0.7-1.3,0.1-1.9c-0.4-0.5-0.1-1,0.1-1.5c0.5-1.5,0.1-1.9-1.5-1.5
		c-0.3,0.1-0.6,0.2-0.9,0.2c-1.2,0-1.1-0.7-0.9-1.6c0.3-1.2-0.4-1.9-1.6-1.6c-0.6,0.1-1.2,0.3-1.8,0.5c-1.3,0.5-2.1,0.2-2.4-1.2
		c-0.2-0.9-0.8-1.5-1.4-2.1c-0.3-0.3-0.8-0.6-0.9-1c-0.3-1.9-1.7-2.6-3.2-3.1c-0.8-0.3-1.2-0.9-1.4-1.7c-0.3-1.7-1-3.4,0-5.2
		c0.5-1-0.7-1.7-1-2.6c-0.2-0.4-0.8-0.7-0.4-1.2c0.4-0.5,1-0.7,1.7-0.5c0.7,0.3,1.4,0.6,2.1,1c0.9,0.5,1.7,0.4,2.2-0.6
		c0.4-0.7,1-1,1.8-0.9c0.7,0.1,1.3-0.1,1.8-0.7c0.1-0.2,0.3-0.4,0.5-0.4c2.4-0.2,3.7-2,5.2-3.5c0.8-0.9,2.1-1,3.2-1.3
		c2.7-0.7,4.6-2.5,5.7-4.9c0.8-1.7-0.2-3-1.3-4.3c-1-1.1-2.3-2.2-1.5-4c0.2-0.5-0.2-0.9-0.6-1.1c-0.4-0.2-0.9-0.5-1.4-0.7
		c-0.7-0.3-0.8-1-0.9-1.5c0-0.6,0.6-0.7,1.1-0.8c1.4-0.5,2.8-0.8,4-1.6c0.9-0.6,1.8-1.1,1.3-2.6C204.2,48.4,205.1,48.1,206.1,48.2z"
		/>
	<path class="st8" d="M47,157.1c0-1.8-1.2-2.8-2.9-2.4c-0.5,0.1-0.9,0-1.3-0.3c-0.3-0.2-0.7-0.5-1.1-0.1c-0.3,0.4-0.3,0.7-0.1,1.1
		c0.1,0.3,0.2,0.6,0.3,0.9c0.4,1,0.2,2-0.5,2.5c-0.9,0.6-2,0.3-2.9-0.2c-0.6-0.4-0.3-0.9,0-1.3c0.6-1.1,1.2-2.2,2-3.3
		c1.7-2.4,1.4-5.3,1.7-8c0-0.2-0.1-0.6-0.2-0.7c-1.4-1.2-0.7-1.9,0.5-2.6c0.7-0.4,1.4-0.8,2.1-1.3c0.9-0.6,1.7-0.7,2.5,0.3
		c0.7,1,1.4,0.5,1.9-0.3c0.4-0.7,0.7-1.4,1-2.1c0.5-1.2,1.3-1.2,2.2-0.5c0.6,0.4,1.1,0.9,1.5,1.5c0.9,1.1,1.6,0.8,2-0.2
		c0.6-1.3,1.4-2.2,2.7-2.8c1.2-0.5,1.3-1.8,1.4-2.9c0-1.1,0.4-1.7,1.3-2.3c0.3-0.2,0.7-0.5,1-0.8c1.1-1.1,1.9-1.2,3-0.2
		c0.8,0.7,1.4,1.5,2.1,2.3c0.8,0.9,1.5,0.9,2.3,0.1c0.3-0.4,0.7-0.8,0.9-1.2c0.6-1.3,1.4-2,2.9-1.8c1.4,0.2,2.2,1.2,2.5,2.4
		c0.3,1,0.7,1.7,1.8,1.7c0.3,0,0.6,0.2,0.7,0.5c1.5,2.9,4,2.7,6.6,2.5c1.8-0.1,3.2-0.7,4.1-2.4c0.2-0.4,0.6-0.8,1.1-0.6
		c1,0.3,2,0.4,2.9,0.9c1.4,0.8,2.3,1.6,1.5,3.5c-0.8,2-0.1,2.8,2,3c1.3,0.2,2.4,1.8,1.9,3.3c-0.3,1-0.3,1.7,0.4,2.4
		c0.3,0.3,0.6,0.6,0.4,1.1c-0.2,0.5-0.7,0.2-1.1,0.3c-0.1,0-0.1,0-0.2,0c-0.8,0.1-1.5-0.9-2.3-0.2c-0.8,0.7-1.1,1.8-1.2,2.8
		c-0.1,2.1-1.1,3.7-2.6,5c-0.8,0.7-1.3,1.5-1.2,2.7c0.1,0.8-0.2,1.4-1.1,1.9c-1.4,0.8-1.4,2.4-1.6,3.8c-0.1,0.8-0.3,1.3-1.1,1.5
		c-1.2,0.3-1.9,1.1-2.1,2.5c-0.1,0.8,0,2.1-1.7,1.5c-0.9-0.3-1.4,0.9-2,1.7c-0.5,0.7,0.2,0.9,0.4,1.4c0.6,1.3,1.3,2.5,2.5,3.4
		c0.6,0.5,0.4,1.3,0.2,1.9c-0.2,0.5-0.8,0.6-1.3,0.5c-2.1-0.4-3.4,0.7-4.3,2.4c-0.3,0.6-0.6,1.4-1.5,1.3c-1-0.2-1.9-0.6-2.2-1.7
		c-0.2-0.7-0.5-1.3-0.7-2c-0.2-0.7-0.5-1.1-1.2-1.4c-1.3-0.4-1.6-1.7-2.1-2.7c-0.4-0.8-0.8-1.3-1.8-1.2c-1.1,0.2-1.9-0.3-2-1.4
		c-0.1-1.1,0.2-2,1.5-2.4c1-0.3,2.2-0.5,2.4-1.8c0.1-0.8,0.4-2-0.6-2.4c-0.9-0.4-2.1-1.6-3.2,0.1c-0.3,0.5-0.8,0.1-1.1-0.1
		c-0.9-0.5-1.6-0.5-2.1,0.6c-0.2,0.4-0.5,0.8-1.1,0.6c-0.5-0.2-0.3-0.7-0.3-1.1c0-0.6,0-1.1-0.6-1.5c-0.6-0.4-0.9,0.1-1.3,0.4
		c-0.7,0.6-1.1,0.3-1.2-0.4c-0.2-1.6-0.9-2.5-2.7-1.8c-0.1,0-0.3,0-0.3,0c-1.3-1.4-3.2-0.5-4.6-1.4c-0.5-0.3-1-0.2-1.4,0.1
		c-1,0.6-1.3,0.2-1.2-0.8c0.1-0.8,0-1.3-0.9-1.6C47,159.1,46.8,158.1,47,157.1z"/>
	<path class="st9" d="M130.1,56.2c-0.1,0.3-0.2,0.6-0.3,0.9c-0.2,1.6,0.3,2.9,2,3.5c0.8,0.3,1.1,1,1.3,1.7l0,0
		c0.6,0.8,1.4,0.7,2.3,0.6c0.5-0.1,0.9-0.2,1.2,0.3c0.4,0.5,0.1,1-0.2,1.4c-0.4,0.5-0.6,1.1-1,1.6c-0.6,0.8-1.3,1.3-2.3,0.8
		c-1.1-0.6-1.7-0.1-1.9,1.1c-0.3,1.2-2.1,4.2-3,4.8c-2.2,0.8-4.5,0.8-6.8,0.4c-0.8-0.1-1.3-0.5-1.3-1.4c0.1-1.5-0.9-1.8-2.1-1.4
		c-1.3,0.4-2.5-0.2-3.6-0.1c-3,0.4-5.1-1.9-7.8-2.2c-0.6-0.2-0.9,0.3-1.1,0.6c-0.6,1-1.4,1.1-2.4,0.5c-0.8-0.5-1.4-0.7-1.7,0.5
		c-0.3,1.2-1.5,0.9-2.3,1.1c-0.1,0.1-0.2,0.1-0.4,0.2c-0.6,0.4-0.1,0.8,0.1,1.2c0.5,1,0.3,1.5-0.8,1.5c-1.3,0.1-2.7,0.3-3.8-0.7
		c-0.6-0.6-1.1-0.1-1.7,0.1c-0.6,0.4-1.1,1-1.1,1.7c-0.1,1.4-0.7,1.3-1.7,0.9c-0.2-0.1-0.4-0.1-0.6-0.1c-0.8-0.1-1.5-0.6-2.3-0.8
		c-0.5-0.1-1-0.1-1.5,0.1c-1.9,0.8-2.5,0.5-3.4-1.4c-0.2-0.7-0.5-1.3-0.7-2c-0.4-1.2-0.4-2.2,0.7-3.1c0.9-0.7,1.3-1.5-0.4-1.7
		c-0.6-0.1-0.9-0.5-0.7-1.1c0.2-0.4,0.6-0.3,0.9-0.4c1.3-0.2,1.4-0.5,0.7-1.8c-1-0.6-2.1-1.1-3-1.9C78.9,60.8,78.5,60,79,59
		c0.5-1.1,0.2-2.1-0.5-3c-1.2-1.5-1.1-1.8,0.5-2.6c1.8-0.8,1.8-1,0.8-2.6c-0.2-0.4-0.5-0.8-0.3-1.1c1.2-1.9,0.1-3.3-1-4.7
		c0,0,0,0,0,0c-0.7-1.5,0.1-1.8,1.4-1.9c1.1-0.1,2.1-0.3,2.9-1.3c2-2.5,4.9-3.5,8-3.9c3.1-0.4,6.1-1.1,9.1-2.1
		c3.4-1.1,7-0.7,10.5-0.7c4.1,0.1,6.9,2.8,10.2,4.6c0.2,0.1,0.4,0.3,0.5,0.5c0.3,0.5,1.1,1.1,0.4,1.7c-0.6,0.6-1.2-0.1-1.6-0.5
		c-1-0.9-1.9-1.9-2.9-2.8c-1-0.9-2-1.7-3.4-1.9c-0.7-0.1-1.4,0.1-1.6,0.9c-0.2,0.7,0.4,1.1,1,1.3c0.4,0.1,0.9,0.1,0.7,0.7
		c-0.2,1.1,0.4,1.9,1.2,2.5c0.8,0.6,0.9,1.5,0.6,2.4c-0.4,1.2,0,2.1,0.9,2.9c1.8,1.5,3.9,2.8,6.1,3.1c1.8,0.2,3.8,0.5,5.7-0.1
		c1.2-0.4,1.9,0.2,1.5,1.5c-0.2,0.8,0.1,1.2,0.7,1.5c0.8,0.5,1.1,0.9,0.1,1.5C130,55.4,130.1,55.8,130.1,56.2z"/>
	<path class="st7" d="M106.3,68.5c0.8,0.4,1.6,1.2,2.6,1.1c0.1,0,0.4,0.1,0.4,0.2c0.9,1.8,2.5,1.3,4,1.3c0.3,0,0.6-0.1,0.8,0.1
		c1.3,0.8,2.5,0.6,3.9,0c0.8-0.4,1.7-0.1,1.5,1.2c-0.1,1.1,0.4,1.4,1.3,1.6c1.6,0.3,3.1,0.5,4.7,0.3c2.4-0.2,2.9,0.2,3.3,2.6
		c0.2,0.8,0.5,1.7,0.8,2.5c0.3,0.9,1,1.4,1.9,0.9c0.9-0.5,1.4,0.2,2.1,0.6c1.4,0.7,2.4,2.1,4.3,1.5c0.9-0.3,1.1,0.8,0.9,1.4
		c-0.3,0.9,0,1.4,0.6,2c1.1,1.1,1.1,1.5-0.2,2.4c-0.3,0.2-0.7,0.5-1.1,0.6c-0.8,0.4-0.8,0.9-0.4,1.6c0.3,0.5,0.6,1,0.8,1.5
		c0.2,0.4,0.4,0.9,0,1.3c-0.4,0.6-0.7-0.1-1-0.2c-0.4-0.1-0.6,0-0.8,0.2c-0.6,0.5-1.4,0.9-2.2,1.1c-0.6,0.2-0.8,0.5-0.4,1
		c0.6,0.7,0.3,1.2-0.2,1.8c-0.7,0.8-0.6,1.4,0.2,2.1c1.1,0.8,1.4,1.5-0.1,2.3c-1.1,0.6-2.2,1.7-1.2,3.3c0.1,0.1,0.1,0.4,0.1,0.4
		c-2.1,0.8-0.3,3.7-2.5,4.4c-0.3,0.1-0.4,0.6-0.6,0.9c-1.2,2.5-3.2,3.1-5.6,1.3c-1-0.8-1.8-0.2-2.5,0.3c-1.1,0.8-1.7,0.7-2.5-0.4
		c-0.8-1.2-1.8-2.4-3.1-3.2c-0.7-0.4-1.5-1.2-2.5-0.3c-0.5,0.4-1.1,0.3-1.1-0.6c-0.1-1.4-0.9-1.5-1.7-0.7c-1.5,1.4-2.9,1.3-4.3,0.1
		c-0.1-0.1-0.3-0.2-0.4-0.2c-1.5-0.5-2.7-1.1-3.6-2.7c-0.7-1.4-2.7-1.5-4.1-0.6c-0.7,0.4-1.1,0.2-1.2-0.5c-0.2-1.5-0.9-1.8-2.2-1.3
		c-1.4,0.6-1.5-0.7-1.9-1.4c-0.6-0.8,0.3-0.8,0.7-1.1c1-0.7,1.1-3.3,0.2-4.6c-0.4-0.6-1-1.2-1.7-1.3c-1.9-0.3-2.1-1.4-1.5-3
		c0.3-0.8,0.3-1.6,0.2-2.4c-0.1-1.1,0-2.1,1-2.9c0.8-0.6,0.7-1.4,0-2.2c-0.2-0.2-0.4-0.4-0.6-0.5c-0.7-0.7-2.2-0.8-2.1-1.7
		c0-0.8,1.2-1.5,1.7-2.3c1.1-1.5,1.2-3.3,1.8-5c0.4-0.4,0.8-0.3,1.1,0c1.4,1.7,3.1,0.4,4.7,0.4c0.7,0,0.8-0.6,0.3-1.2
		c-0.5-0.5-1.1-1.1-0.2-1.7l0,0c0.3-0.3,0.7-0.2,1-0.1c0.9,0.1,1.5-0.1,1.8-1c0.2-0.7,0.8-0.8,1.4-0.5c1.1,0.7,1.9,0.9,2.6-0.5
		C105.7,68.3,106.1,68.4,106.3,68.5z"/>
	<path class="st7" d="M148.1,148.4c-2.7-0.2-3.7,1.1-2.8,3.6c0.3,0.8,0.6,1.6,0.8,2.5c0.1,0.2,0,0.5-0.1,0.6c-0.2,0.2-0.5,0-0.7-0.2
		c-0.1-0.1-0.2-0.2-0.3-0.3c-0.6-0.3-0.7-1.4-1.7-1.1c-1,0.3-1,1.2-1.2,2c-0.3,1-0.5,2-1,2.9c-0.6,0.9-1.3,1.2-2.1,0.3
		c-0.8-0.8-1.6-1.7-2.9-1.1c-0.5,0.2-0.9-0.3-1-0.8c-0.3-1-1.1-1.7-1.9-2.4c-1.1-1-2.1-1.6-3.5-0.4c-0.6,0.5-1.1,0.2-1.7-0.1
		c-1-0.7-2.1-1.3-3.1-2c-0.9-0.6-1.7-0.6-2.6-0.1c-0.8,0.5-1.6,0.8-2.6,1c-1.4,0.3-2.4-0.1-3.1-1.4c-0.6-1.2-1.2-2.2-2.6-0.7
		c-0.4,0.4-0.9,0.2-1.2-0.1c-1-0.7-2.1-1-3.3-1c-0.9,0-1.9-0.1-1.4-1.6c0.3-0.8-0.5-1.4-0.9-2c-1.3-1.7-1.1-2.1,0.8-2.9
		c0.5-0.2,0.7-0.6,1-0.9c0.3-0.3,0.5-0.4,1-0.2c1.1,0.5,2.4-0.3,2.5-1.6c0.1-0.6,0.1-1.3-0.1-1.8c-0.9-3,0.1-5.7,1.5-8.2
		c0.6-1,1.3-1.7,2.6-1.1c1.4,0.6,2.2-0.2,2.9-1.2c0.6-1,1.7-2,0.5-3.3c-0.4-0.4-0.5-1-0.5-1.6c0-0.7,0.2-1.3,1.2-1
		c1.4,0.4,2.3-0.5,3.2-1.4c0.4-0.5,0.6-0.9,0.1-1.5c-0.8-1.1-0.1-1.4,0.8-1.6c0.5-0.1,1-0.2,1.5-0.4c1-0.5,1.7-1.1,0.6-2.2
		c-0.3-0.3-0.7-0.7-0.4-1.2c0.3-0.4,0.9-0.5,1.4-0.4c0.8,0.2,1.5,0.1,2.1-0.5c0.5-0.5,1-0.3,1.4,0.1c0.7,0.7,1.6,0.8,2.5,0.8
		c1.4,0,2.4,1,3.3,1.8c0.6,0.5,1.1,0.7,1.8,0.3c0.4-0.2,0.8-0.3,1.2-0.1c1,0.6,1.7,0.1,2.6-0.4c1.3-0.8,4,0.5,4.1,2.1
		c0.1,1.3,0.7,1.9,1.8,2.3c0.5,0.2,1,0.5,1.5,0.8c0.6,0.4,0.7,0.9,0,1.3c-0.8,0.5-1,1-0.2,1.7c0.6,0.5,0.8,0.9,0.2,1.5
		c-0.7,0.7-0.3,1.1,0.4,1.4c0.6,0.2,1.1,0.6,1.8,0.4c1.5-0.3,2.8,0.2,4.1,0.9c1,0.5,1.2,1,0.8,1.9c-0.4,1.1-0.2,2,0.8,2.7
		c0.4,0.3,0.9,0.6,0.6,1.2c-0.3,0.6-0.8,0.2-1.2,0.1c-4.3-0.3-5.2-0.5-3.3,4.1c0.4,0.9,0.3,2.2,2,2c0.6-0.1,0.8,0.5,0.2,0.9
		c-1.9,1.2-2.8,3.1-3.2,5.2c-0.2,0.9-0.8,0.8-1.3,0.8c-0.8-0.1-1.4,0.1-1.8,0.9C149.6,148.5,149.5,148.5,148.1,148.4z"/>
	<path class="st9" d="M201.7,177.3c2.1-0.2,4.1-0.7,5.9,0.6c0.4,0.3,0.8-0.1,1.1-0.3c0.8-0.7,1.5-1.4,2.3-2.1
		c0.6-0.6,1.2-1.5,2.3-0.6c0.4,0.3,0.8-0.2,1.2-0.4c1-0.6,1.9-0.2,2,0.9c0.1,1.2,0.7,1.8,1.8,2.2c0.8,0.3,1.7,1,0.5,1.9
		c-5.4,4.3-9.3,10-13.5,15.4c-1.1,1.4-2.3,2.6-3.2,4.1c-0.6,1-0.7,1.9-0.2,2.9c0.9,1.7,1.1,3.7,1.5,5.6c0.2,1-0.3,1.8-0.6,2.7
		c-0.5,1.3-0.5,2.1,1.1,2.5c1.7,0.5,2.6,2.5,2.1,4.2c-0.1,0.3-0.3,0.4-0.5,0.4c-0.4,0-0.9,0.2-1.2-0.4c-0.3-0.9-0.9-1.1-1.7-0.6
		c-0.9,0.6-1.5,0.1-1.8-0.6c-0.5-1.1-1.1-1.6-2.4-1c-0.8,0.5-1.6,0-2.2-0.6c-0.6-0.7-1.3-1-2.2-0.9c-0.8,0.1-1.4-0.2-2-0.7
		c-0.9-0.9-1.8-1.7-3.1-1.8c-0.6-0.1-0.6-0.5-0.7-1c-0.9-3.1-2.2-4.1-5.3-4.2c-1,0-1.7-0.7-2.4-1.2c-1-0.7-1.8-0.8-2.8-0.1
		c-0.4,0.3-0.8,0.5-1.2,0.6c-1,0.2-1.5-0.1-1.3-1.2c0.1-0.4,0.4-0.9,0.2-1.2c-1.4-2.5-0.6-5.3-1.3-7.8c-0.3-1.2-1.3-1.5-2.3-1.7
		c-0.5-0.1-1.1-0.1-1.3-0.7c-0.2-0.7,0.5-1,0.9-1.3c0.5-0.3,1-0.6,1.4-0.9c0.4-0.3,1-0.5,0.9-1.1c-0.1-0.6-0.7-0.6-1.2-0.8
		c-0.3-0.1-0.6-0.1-0.9-0.2c-1.6-0.5-1.7-0.9-0.7-2.2c0.6-0.7,0.2-1.3,0-1.9c-0.4-1.3-0.9-2.4-0.1-3.8c0.3-0.5-0.4-1.6-0.1-2.4
		c0.6-1.8,1.8-3.2,3.2-4.5c0.3-0.3,0.7-0.3,1-0.2c0.8,0.2,1.2-0.2,1.4-0.8c0.5-1.1,1.3-1.6,2.4-1.9c1.3-0.3,2.1-1,2.4-2.3
		c0.2-1,0.7-1.6,1.7-1.9c1.1-0.3,1.4-1.2,1.8-2.2c0.1-0.4,0.2-0.9,0.5-1.1c0.3-0.3,0.8-0.4,1.1-0.4c1.5,0.3,2.8-1.7,4.5-0.5
		c0.7,0.5,1.1,0.7,0.7,1.6c-1,2.3-0.8,2.5,1.6,3.2c2.1,0.6,4.4,0.9,5.5,3.2c0.4,0.8,0.5,1.2-0.5,1.4c-1.3,0.2-1.8,1.1-1.7,2.3
		c0.1,1.3,1,1.7,2.1,1.9c0.9,0.1,2.1-0.3,2.2,1.4C200.4,177.2,201.4,177.2,201.7,177.3z"/>
	<path class="st9" d="M131.7,177.2c0.6-0.6,1.3-0.6,2-0.9c0.5-0.2,1.2-0.4,1.3-1c0.2-1.5,1.2-1.4,2.3-1.7c1.5-0.4,3-0.4,4.5-0.5
		c0.9-0.1,1.7-0.6,2.3-1.2c0.9-1,1.9-1.1,3.1-0.9c1.7,0.2,3.6,0.2,4.4,2.2c0.3,0.7,0.7,1.2,0.3,2c-0.4,0.9,0.4,1.5,0.8,2.2
		c1.7,3.4,1.7,3.3,5.4,2.8c1.5-0.2,2.8-0.5,3.7-1.9c0.5-0.8,1.3-0.9,2.2-1c1.8-0.2,3.7-0.2,5.3-1.5c0.3-0.2,0.7-0.4,1-0.2
		c0.4,0.3,0.2,0.8,0.1,1.1c-0.5,1.4-0.9,2.8-0.9,4.3c0,0.2-0.1,0.4,0,0.6c0.8,1.6,1.1,3-0.2,4.6c-0.5,0.6,0.4,1.5,1.1,1.7
		c1.4,0.5,1.8,0.9,0.3,2c-1.9,1.5-1.5,2.9,0.8,3.6c1.2,0.4,2.5,2.8,1.9,4.1c-0.5,1.1-0.1,1.7,0.4,2.5c0.3,0.5,0.6,1.1,0.8,1.7
		c0.3,1.2-0.1,1.7-1.3,1.4c-0.7-0.2-1,0-1.3,0.6c-0.5,1.1-1.2,1.3-2.2,0.5c-0.5-0.4-1-0.9-1.3,0.4c-0.3,1.4-1.9,2-2.7,3.2
		c-0.3,0.4-3.4-1.4-3.8-2.2c-0.5-1.3-1.4-1.5-2.6-1c-1.1,0.5-2.1,0.8-3.3,0.1c-0.8-0.5-1.7,0-2.4,0.6c-0.6,0.6-1.3,0.9-2.2,0.9
		c-1-0.1-1.7,0.7-2.1,1.5c-0.4,0.8-0.7,1.6-1.1,2.4c-0.7,1.4-1.4,1.5-2.3,0.3c-0.8-1.1-1.4-0.9-2.1,0c-0.4,0.5-0.8,1.3-1.7,0.8
		c-0.9-0.5-1.3-1.2-0.8-2.3c0.4-0.9,0.8-1.9,0.7-2.9c-0.1-1-0.4-1.7-1.5-1c-1,0.6-1.6,0.1-1.9-0.7c-0.3-0.8-0.8-1.5-1.6-1.9
		c-1-0.6-1.9-3.2-1.6-4.3c0.2-0.6,0.3-1.3-0.2-1.7c-0.8-0.7-1.3-1.3-0.4-2.3c0.4-0.4-0.2-0.7-0.6-0.8c-1.4-0.3-2.4-1-2.6-2.6
		c0-0.3-0.2-0.6-0.5-0.7c-0.9-0.2-1.2-0.7-1.1-1.7c0.1-1-0.8-0.9-1.4-1.1c-1-0.2-1.1-0.7-0.4-1.3c1.1-1.1,2-2.3,2.8-3.6
		c0.5-0.8,1.8-1,2.5-1.8c1.5-1.7,1.6-1.7-0.5-2.7C132.4,177.8,132,177.7,131.7,177.2z"/>
	<path class="st6" d="M63.9,124.8c0.7-0.3,0.9,0,0.9,0.7c0.2,1.9,1,2.3,2.7,1.8c1.3-0.4,2.9,1.3,2.7,3c-0.1,0.6-0.2,1.2-0.6,1.7
		c-1.2,1.8-1.7,1.9-2.8,0c-0.5-1-1.2-1.6-2.4-1.6c-1.2-0.1-2.3,0.3-3.3,0.9c-1.8,1-2.7,2.4-2.8,4.4c0,0.3-0.1,0.7-0.5,0.9
		c-1.2,0.6-2,1.6-2.7,2.6c-0.5,0.7-1,1.1-1.6,0.1c-0.1-0.1-0.2-0.1-0.2-0.2c-2.5-2.2-3.1-2.2-4.6,0.7c-0.6,1.1-1.1,1.7-2.3,0.6
		c-0.7-0.6-1.6-0.3-2.3,0.1c-0.5,0.3-1,0.7-1.5,1.1c-1.7,1.4-1.7,1.4-2.2-0.7c-0.2-0.8-0.8-1.1-1.5-1.4c-1-0.4-1.9-0.8-2.8-1.2
		c-0.9-0.4-1.3-1-0.4-1.9c0.7-0.7,0.7-1.5,0.2-2.3c-1-1.5-1-3.4-2.7-4.5c-0.6-0.4-0.3-1.2,0.4-1.7c1.4-0.9,2.4-2,1.7-3.8
		c-0.1-0.2,0-0.5,0.1-0.6c1.4-1.2,1-2.3,0-3.5c-0.5-0.6-0.4-1.5-0.1-2.2c0.6-1.2,0.1-2.1-1.1-2.3c-2.4-0.5-1.8-2.7-2.3-4.2
		c-0.3-1.2,0.6-1.9,1.6-2.4c0.5-0.3,0.7-0.7,0.3-1.1c-0.8-0.6-0.6-1.2-0.1-1.8c0.2-0.2,0.2-0.6,0.2-0.9c0.1-1-0.2-2.3,1.5-1.1
		c0.5,0.3,2.3-1.6,2.3-2.5c-0.1-1.1,0.4-1.8,1.2-2.3c0.3-0.2,0.6-0.4,0.6-0.8c-0.1-1.7,0.7-1.6,1.8-0.9c2,1.3,3.8,0.6,5.3-0.9
		c1.5-1.5,3.5-2.4,5.1-3.7c0.5-0.4,0.9-0.5,1.5-0.2c2.3,0.9,3.5,0.6,5.1-1.3c0.5-0.6,1.1-1.3,1.5-1.9c0.6-0.9,1.3-0.6,1.9-0.2
		c0.8,0.5,0.5,1.1,0,1.7c-0.7,0.8-0.8,1.6-0.4,2.6c0.6,1.2,0.4,2.3-0.5,3.3c-0.7,0.8-0.9,1.5-0.2,2.5c0.5,0.6,0.4,1.1-0.6,1.4
		c-2.1,0.7-2.8,2.5-2,4.5c0.3,0.8,0.7,1.6,1.1,2.4c0.1,0.3,0.4,0.6,0.3,0.8c-1,2.3,1.2,4.7-0.1,7c-0.4,0.7-0.6,1.8,0.3,2.5
		c0.2,0.2,0.3,0.6,0.1,0.9c-0.9,1.3-0.1,2,1,2.5c0.8,0.3,0.9,1,1.1,1.7C62.2,124,62.5,125.1,63.9,124.8z"/>
	<path class="st10" d="M116.4,162.7c-1.1-1.3-1.1-1.7,0.4-3.4c0.7-0.8,1.5-1.4,1-2.7c-0.3-0.8,1-1.3,1-2.3c0-1.1,1.2-0.9,2.1-1
		c0.5,0,1.2-0.2,1.5-0.5c1.1-1.1,2-0.4,2.9,0.2c0.8,0.5,1.5,1.1,2.3,1.7c0.9,0.6,1.8,1,2.7-0.1c0.3-0.4,0.9-0.5,1.1-0.2
		c0.9,1.1,2.6,1.3,3.1,2.9c0.3,1,0.7,1.6,1.9,1.1c0.8-0.3,1.6,0,2.1,0.8c0.5,0.8,1.1,1.1,2.1,0.8c0.4-0.1,1-0.3,1.2,0.2
		c0.2,0.5,0,1-0.6,1.3c-1.4,0.9-1.6,1.9,0.2,3c0.3,0.2,0.6,0.2,0.8,0.4c1.5,0.7,1.5,0.9,0.3,1.9c-1.7,1.6-1.6,2.4,0.7,3.2
		c0.4,0.1,1,0.1,1.1,0.6c0.1,0.6-0.6,0.5-0.9,0.9c-0.3,0.3-0.8,0.8-1.1,0.7c-2.2-0.3-4.2,0.9-6.4,1c-0.8,0-1.3,0.2-1.4,1
		c-0.2,1.1-0.8,1.7-1.9,1.8c-0.4,0.1-0.7,0.4-1.1,0.5c-0.4,0.1-0.8,0.3-0.8,0.8c0,0.5,0.4,0.8,0.8,1c0.3,0.2,0.8,0.2,1.1,0.4
		c1,0.3,0.7,0.8,0.2,1.2c-0.4,0.3-0.8,0.6-1.3,0.8c-1,0.6-1.9,1.1-2.2,2.4c-0.2,1.1-1.3,1.6-2,2.4c-1,1.2-0.8,2.8,0.3,2.7
		c1.5-0.2,1.4,0.3,0.9,1.3c-0.3,0.7,0.4,1,0.8,1c0.9,0,1.2,0.5,1.3,1.3c0.2,1.1,1.1,1.5,2,1.8c0.9,0.3,1,0.6,0.4,1.2
		c-0.6,0.8-0.3,1.4,0.5,1.6c1.2,0.4,1.2,1.2,0.7,2c-0.7,1.4-1.3,2.9-3.4,2.8c-1.1-0.1-1.3,0.9-1.2,1.7c0.1,1.5-0.6,2.1-2,1.9
		c-0.9-0.1-1.4,0.7-2.3,0.7c-0.9,0-1.3-0.2-1.3-1.2c0-1.3,0.3-2.6-1.9-2.6c-0.9,0-1.2-1.6-1.2-2.5c0.1-1.8-0.5-2.7-2.3-3.2
		c-1.6-0.4-3.1-2.8-3-4.9c0-1-0.5-1.2-1.2-1.7c-1.9-1.3-4.5-0.9-6.2-2.7c-0.3-0.3-0.8-0.5-1.3-0.4c-1.3,0.3-1.6-0.4-1.7-1.5
		c-0.1-0.9,0.4-1.7,0.4-2.6c0-1.4,1.1-1.3,1.9-1.5c1.2-0.3,1.7-1.6,2.8-2c0.2-0.1,0.4-0.3,0.6-0.4c2.1-1.2,2.1-1.2,0.9-3.3
		c-0.6-1.1,0.3-2,0.6-2.9c0.2-0.7,0.7-0.3,1.2-0.4c0.9-0.1,0.5-0.9,0.4-1.3c-0.3-0.8-0.3-1.2,0.7-0.9c0.6,0.2,1.3,0.9,2-0.1
		c0.5-0.9,0.1-1.5-0.4-2.2c-0.1-0.2-0.2-0.4-0.3-0.5C113.7,164.4,113.7,164.4,116.4,162.7z"/>
	<path class="st6" d="M184.2,159.4c-0.1,1.1,0,2.2-0.2,3.4c-0.3,1.3-0.8,2.2-2.1,2.5c-1.1,0.3-1.4,1.2-1.6,2.1
		c-0.3,1.1-0.9,1.8-2.1,2c-1,0.2-1.7,0.7-2.2,1.5c-0.5,0.8-1,1.4-2.1,1.2c-0.2,0-0.6,0.2-0.8,0.4c-2.2,2.7-5.3,3.3-8.4,3.9
		c-1.6,0.3-3.2,0.2-4.3,2.1c-0.6,1.1-2.5,0.6-3.7,1c-1.4,0.4-2.4,0-2.6-1.6c-0.1-0.6-0.4-1-0.8-1.4c-0.4-0.3-0.6-0.7-0.5-1.2
		c0.3-3.1-1.6-5.3-4.7-5.3c-1.3,0-2.7,0-4-0.4c-0.6-0.2-1.3-0.5-1.5-1.2c-0.2-0.8,0.5-1,1-1.4c1.1-0.8,1.1-1.5,0.1-2.3
		c-0.5-0.4-1-0.7-1.6-1c-1.2-0.6-1.2-1.3-0.2-2.1c0.9-0.7,1.3-1.4,0.3-2.4c-0.3-0.3-0.3-0.7,0-1c0.8-0.8,1-1.9,1-3
		c0-0.4,0-0.8,0.5-0.9c0.4-0.1,0.7,0.2,0.9,0.5c0.5,0.7,1,1.6,2,0.9c0.9-0.7,0.7-1.6,0.3-2.5c-0.1-0.3-0.3-0.7-0.4-1
		c-0.8-2.5-0.5-3,2.1-3c1.1,0,2.1-0.3,2.6-1.3c0.3-0.6,0.7-0.7,1.3-0.6c1.2,0.2,1.7-0.4,1.8-1.5c0-0.3,0-0.8,0.4-0.9
		c0.5-0.2,0.9,0.1,1.2,0.5c0.9,1.4,2.1,2.5,3.5,3.5c2,1.4,4.1,2.6,6.6,1.1c0.7-0.4,1.6-0.2,2.3-0.8c0.5-0.4,0.8,0.2,0.9,0.8
		c0.3,2.3,0.4,2.3,2.7,2.3c1.1,0,1.8,0.3,2.5,1.2c1.1,1.5,1.6,1.6,3.4,0.7c1.2-0.6,2.4-1.7,3.8-0.4c0.1,0.1,0.4,0.1,0.6,0
		c1.8-0.9,1.8,0.5,1.9,1.6C184.1,156.8,184.2,158.1,184.2,159.4z"/>
	<path class="st5" d="M98.3,176.3c-1.5,1.8-3.3,1.7-5.1,1.7c-1.1,0-2.2-0.1-2.8-1.1c-0.2-0.3-0.6-0.4-0.9-0.5
		c-0.8-0.2-1.5-0.4-1.8-1.4c-0.4-1-1.5-1-2.3-1.3c-0.9-0.3-1.8-0.5-2.7-0.8c-0.3-0.1-0.9-0.3-0.6-0.9c0.2-0.4,0.5-0.6,1-0.5
		c1.8,0.3,2.1,0.1,2.2-1.8c0.1-1.3,0.6-2.1,1.9-2.4c1.2-0.3,1.8-1,1.6-2.2c-0.2-1.1,0.5-1.8,1.3-2.5c0.9-0.8,1.4-1.6,1.2-2.8
		c-0.1-0.8,0.2-1.6,0.8-2c2.2-1.6,3.2-3.8,3.4-6.4c0.1-1.2,0.7-1.7,2-1.5c0.4,0.1,0.8,0.1,1.2,0c0.9-0.2,1.4-0.2,1.5,1
		c0,1,1,1,1.8,0.9c1.2-0.1,2.4-0.6,3.5-1.1c2.4-1.1,4.7-0.5,7,0.6c0.9,0.4,1.7,1.1,2.5-0.1c0.2-0.2,0.5-0.3,0.7-0.1
		c0.7,0.9,1.4,1.8,2.1,2.8c0,0,0,0.1,0,0.1c-1.7,1.4-0.1,3.9-1.9,5.3c-0.9,0.7-1.8,1.6-0.9,3c0.3,0.5-0.3,0.7-0.6,1
		c-1.3,1.3-1.2,2.5,0.4,3.5c0.3,0.2,0.7,0.4,1,0.7c0.4,0.3,0.7,0.7,0.5,1.2c-0.2,0.7-0.7,0.2-1.2,0.1c-1.7-0.4-2-0.1-2.1,1.4
		c0,0.2-0.1,0.4-0.2,0.5c-1.9,1.7-2.1,3.3-0.9,5.4c0.3,0.5,0.4,1-0.3,1.2c-1.4,0.4-2.2,1.4-3.3,2.2c-0.9,0.7-3.6,3.9-3.9,4.9
		c-0.4,1.2-1,2.4-2.4,2.4c-1.5,0-2.6-0.8-3-2.4c-0.3-1.3-1.3-2-2.5-2.5c-0.6-0.2-1.1-0.9-0.3-1.1C98.4,180.2,98.4,178.6,98.3,176.3z
		"/>
	<path class="st11" d="M21.7,182.5c-0.5,0.4-0.8,0.6-1.2,0.8c-0.4,0.3-0.5-0.1-0.7-0.3c-0.2-0.2-0.4-0.4-0.1-0.7
		c0.1-0.1,0.3-0.3,0.5-0.4c0.9-0.6,1.6-2,2.8-1.4c0.9,0.5,0.3,1.8,0.3,2.7c0.1,1.3,0,2.6,0,3.8c0,0.6,0.3,1.4-0.9,1.3
		c-1.1,0-0.8-0.7-0.8-1.3C21.6,185.8,21.7,184.3,21.7,182.5z"/>
	<path class="st12" d="M185.9,36.1c0.4,2.7-2.2,1.9-3.1,3.1c0.8,0.4,1.6,0.8,2.5,1.1c0.7,0.3,0.8,0.8,0.6,1.4
		c-0.3,0.9-0.9,0.1-1.2,0c-1.2-0.5-2.3-1.1-3.4-1.7c-0.4-0.2-0.9-0.3-0.9-0.9c0-0.5,0.4-0.6,0.8-0.8
		C182.7,37.5,184.2,36.8,185.9,36.1z"/>
	<path class="st12" d="M191.1,36.1c0.3,2.6-2.2,1.9-3.1,3.1c0.8,0.4,1.5,0.8,2.3,1.1c0.7,0.3,1,0.8,0.7,1.4
		c-0.4,0.8-0.9,0.1-1.2-0.1c-1.2-0.5-2.4-1.1-3.6-1.8c-1-0.5-1-1.1,0.1-1.6C187.9,37.5,189.4,36.8,191.1,36.1z"/>
	<path class="st13" d="M43,187.5c-0.4-2.6,2.1-1.8,2.9-2.9c-0.5-1.3-3.5-0.4-2.8-3.1c1.7,0.8,3.3,1.6,4.9,2.4c0.8,0.4,0.9,1,0,1.4
		C46.4,186.1,44.7,186.7,43,187.5z"/>
	<path class="st12" d="M40.9,184.6c-0.8-1.3-3.5-0.6-3.1-3.2c1.7,0.8,3.3,1.6,4.9,2.4c0.9,0.5,0.8,1.1-0.1,1.5
		c-1.3,0.6-2.5,1.1-3.8,1.7c-0.3,0.1-0.8,0.6-1,0c-0.2-0.5-0.2-1.1,0.5-1.4C39.2,185.4,40,185,40.9,184.6z"/>
	<path class="st3" d="M28.9,183c0,1.6-0.6,2.4-1.9,2.4c-1.2,0-2-1-1.9-2.6c0.1-1.2,0.3-2.3,1.8-2.4C28.2,180.4,28.9,181.4,28.9,183z
		"/>
	<path class="st3" d="M211.2,39.6c0-1.6,0.6-2.5,1.8-2.5c1.2,0,2,1,2,2.4c0,1.5-0.7,2.5-1.9,2.5C211.9,42.1,211.2,41.2,211.2,39.6z"
		/>
	<path class="st3" d="M34.5,186.2c0,1.5-0.8,2.4-2,2.4c-1.2,0-1.8-0.9-1.8-2.5c0-1.6,0.7-2.5,1.9-2.4
		C33.8,183.7,34.6,184.7,34.5,186.2z"/>
	<path class="st14" d="M128.2,72.9c1-1.7,2.2-3.4,2.8-5.2c0.3-0.9,0.8-1.5,1.8-1c1.1,0.6,1.8,0.2,2.4-0.8c0.1-0.2,0.3-0.4,0.4-0.6
		c0.2-0.6,1.3-1.1,0.8-1.8c-0.4-0.7-1.2-0.1-1.9-0.1c-0.7-0.1-1.4,0.1-1.4-0.9c1,0.3,2.1,0.3,3.2,0.3c1,0,1.4,0.4,0.8,1.3
		c-0.6,1-1.2,1.9-1.8,2.9c-0.5,0.8-1.2,1.1-2.1,0.5c-1.2-0.7-1.6-0.1-1.9,1c-0.5,1.8-1.4,3.3-2.8,4.6
		C128.5,72.9,128.3,72.9,128.2,72.9z"/>
	<path class="st4" d="M27,188.3c1.3-2.4,2.6-4.8,3.9-7.1c0.3-0.5,0.7-0.9,1.2-0.6c0.6,0.3,0,0.8-0.2,1.1c-1.1,2-2.2,4-3.3,6.1
		C28.3,188.4,27.9,188.7,27,188.3z"/>
	<path class="st15" d="M98.9,70.7c-0.4,0.6-0.1,1,0.4,1.5c0.9,1,0.7,1.7-0.7,1.9c-1.1,0.1-2.1,0.1-3.1,0.5c-0.6,0.2-0.9-0.1-1-0.6
		c-0.2-0.7-0.6-1-1.4-0.8c-0.1,0-0.2,0-0.3,0c0.6-1.1,1.2-1.3,2-0.2c0.4,0.5,3.5,0.8,4,0.4c0.8-0.6,0-0.8-0.3-1.2
		C97.8,71.5,97.6,70.9,98.9,70.7z"/>
	<path class="st16" d="M82.2,73.5c0.9,1.3,1.8,2,3.5,1.1c1.2-0.6,2.5,0.4,3.6,1c0,0.1,0,0.2,0,0.4c-0.8-0.3-1.5-0.5-2.3-0.8
		c-0.6-0.2-1.1-0.2-1.6,0.1c-1.8,0.9-2,0.9-3.1-0.9c-0.2-0.3-0.3-0.6-0.5-0.9C81.9,73.5,82,73.5,82.2,73.5z"/>
	<path class="st17" d="M106.3,68.5c-0.1,0-0.4,0-0.4,0.1c-0.6,1.5-1.6,1.9-2.9,0.7c-0.2-0.2-0.7-0.2-0.8,0c-0.5,2-2.1,1.2-3.3,1.4
		c0.2-0.5,0.7-0.3,1.1-0.3c0.8,0,1.3-0.3,1.4-1.1c0.1-1.1,0.6-1.3,1.5-0.7c1,0.7,1.9,1.2,2.7-0.3c0.2-0.5,0.7-0.5,1.2-0.1
		C106.6,68.3,106.4,68.4,106.3,68.5z"/>
	<path class="st18" d="M82.8,63.4c1,1.3,0.8,1.8-0.8,2c-0.3,0.1-0.7,0.1-1.1,0.1c0-0.1,0-0.2,0-0.4c0.4-0.7,2.1,0.2,1.8-1.4
		C82.6,63.6,82.6,63.5,82.8,63.4z"/>
	<path class="st19" d="M16.2,183c-0.4,0.9,1.1,3-1.6,2.5C14.8,184.5,15.6,183.8,16.2,183z"/>
	<path class="st20" d="M207,36.4c0.1-0.4-0.2-1.2,0.6-1.1c0.6,0.1,0.5,0.8,0.4,1.3c0,0.4,0.2,1.2-0.6,1.2
		C206.8,37.6,207.1,36.9,207,36.4z"/>
	<path class="st21" d="M133.2,62.4c-0.6-0.7-1.1-1.4-2.2-1.7c-1.3-0.4-1.8-2.2-1.2-3.6c0.4,1.6,1.1,2.9,2.7,3.5
		C133.2,61,133.2,61.7,133.2,62.4z"/>
	<path class="st22" d="M82.8,63.4c0,0.1,0,0.3,0,0.4c-0.9-0.4-1.8-0.8-2.6-1.4c-1.9-1.2-2.1-1.8-1.3-3.9c0.4-1.2-0.3-1.8-0.9-2.6
		c-1.1-1.4-1-1.9,0.7-2.5c1.9-0.7,1.9-0.7,0.8-2.5c-0.3-0.5-0.5-1-0.2-1.4c0.8-1.3,0.4-2.3-0.4-3.4c-0.2-0.3-0.4-0.6-0.3-1
		c2.1,1.8,2.1,1.9,1.3,4.5c-0.2,0.7,0.1,1.2,0.6,1.6c1,0.9,0.6,1.5-0.4,2.1c-2.1,1.2-2.1,1.3-0.8,3.3c0.4,0.7,0.6,1.4,0.2,2.2
		c-0.7,1.5,0.1,2.3,1.2,3C81.3,62.3,82.2,62.6,82.8,63.4z"/>
	<path class="st20" d="M26.5,182.9c0.1-0.4-0.2-1.2,0.6-1.1c0.6,0.1,0.5,0.8,0.4,1.3c0,0.4,0.2,1.2-0.6,1.2
		C26.3,184.1,26.6,183.4,26.5,182.9z"/>
	<path class="st23" d="M212.5,39.6c0.1-0.4-0.1-1.2,0.5-1.2c0.7,0,0.5,0.8,0.5,1.2c0,0.5,0.2,1.2-0.5,1.3
		C212.4,40.9,212.7,40.1,212.5,39.6z"/>
	<path class="st23" d="M33.1,186.2c-0.1,0.4,0.1,1.2-0.5,1.1c-0.8,0-0.5-0.8-0.5-1.3c0-0.4-0.1-1.1,0.5-1.1
		C33.3,184.9,33,185.7,33.1,186.2z"/>
</g>
</svg>
